<?xml version="1.0" encoding="UTF-8" standalone="no"?><svg xmlns="http://www.w3.org/2000/svg" xmlns:xlink="http://www.w3.org/1999/xlink" height="1360" version="1.1" width="1280.76513671875"><defs/><g><g transform="translate(-22,-118) scale(1,1)"><rect fill="#C0C0C0" height="87" opacity="0.2" stroke="none" width="245.37890625" x="39" y="265"/></g><g transform="translate(-22,-118) scale(1,1)"><rect fill="#C0C0C0" height="22" opacity="0.2" stroke="none" width="16.94091796875" x="276.43798828125" y="247"/></g><g transform="translate(-22,-118) scale(1,1)"><rect fill="#ffffff" height="87" stroke="none" width="245.37890625" x="32" y="258"/></g><g transform="translate(-22,-118) scale(1,1)"><path d="M 32 258 L 277.37890625 258 L 277.37890625 345 L 32 345 L 32 258 Z Z" fill="none" stroke="#000000" stroke-miterlimit="10"/></g><g transform="translate(-22,-118) scale(1,1)"><path d="M 32 298 L 277.37890625 298" fill="none" stroke="#000000" stroke-miterlimit="10"/></g><g transform="translate(-22,-118) scale(1,1)"><path d="M 32 308 L 277.37890625 308" fill="none" stroke="#000000" stroke-miterlimit="10"/></g><g transform="translate(-22,-118) scale(1,1)"><g><path fill="none" stroke="none"/><text fill="#000000" font-family="Arial" font-size="13px" font-style="italic" font-weight="bold" stroke="none" text-decoration="none" x="122.909912109375" y="275.5">Command</text></g></g><g transform="translate(-22,-118) scale(1,1)"><g><path fill="none" stroke="none"/><text fill="#000000" font-family="Arial" font-size="13px" font-style="normal" font-weight="normal" stroke="none" text-decoration="none" x="110.614501953125" y="290.5">(from delegate)</text></g></g><g transform="translate(-22,-118) scale(1,1)"><g><path fill="none" stroke="none"/><text fill="#000000" font-family="Arial" font-size="13px" font-style="normal" font-weight="normal" stroke="none" text-decoration="none" x="37" y="323.5">«constructor»+Command(receiver: T)</text></g></g><g transform="translate(-22,-118) scale(1,1)"><g><path fill="none" stroke="none"/><text fill="#000000" font-family="Arial" font-size="13px" font-style="italic" font-weight="normal" stroke="none" text-decoration="none" x="37" y="338.5">+execute(): void</text></g></g><g transform="translate(-22,-118) scale(1,1)"><rect fill="#ffffff" height="22" stroke="none" width="16.94091796875" x="269.43798828125" y="240"/></g><g transform="translate(-22,-118) scale(1,1)"><path d="M 269.43798828125 240 L 286.37890625 240 L 286.37890625 262 L 269.43798828125 262 L 269.43798828125 240 Z Z" fill="none" stroke="#000000" stroke-dasharray="3" stroke-miterlimit="10"/></g><g transform="translate(-22,-118) scale(1,1)"><g><path fill="none" stroke="none"/><text fill="#000000" font-family="Arial" font-size="13px" font-style="normal" font-weight="normal" stroke="none" text-decoration="none" x="274.43798828125" y="255.5">T</text></g></g><g transform="translate(-22,-118) scale(1,1)"><rect fill="#C0C0C0" height="100" opacity="0.2" stroke="none" width="421.19775390625" x="367" y="439"/></g><g transform="translate(-22,-118) scale(1,1)"><rect fill="#ffffff" height="100" stroke="none" width="421.19775390625" x="360" y="432"/></g><g transform="translate(-22,-118) scale(1,1)"><path d="M 360 432 L 781.19775390625 432 L 781.19775390625 532 L 360 532 L 360 432 Z Z" fill="none" stroke="#000000" stroke-miterlimit="10"/></g><g transform="translate(-22,-118) scale(1,1)"><path d="M 360 472 L 781.19775390625 472" fill="none" stroke="#000000" stroke-miterlimit="10"/></g><g transform="translate(-22,-118) scale(1,1)"><path d="M 360 495 L 781.19775390625 495" fill="none" stroke="#000000" stroke-miterlimit="10"/></g><g transform="translate(-22,-118) scale(1,1)"><g><path fill="none" stroke="none"/><text fill="#000000" font-family="Arial" font-size="13px" font-style="normal" font-weight="bold" stroke="none" text-decoration="none" x="522.9375" y="449.5">FightCommand</text></g></g><g transform="translate(-22,-118) scale(1,1)"><g><path fill="none" stroke="none"/><text fill="#000000" font-family="Arial" font-size="13px" font-style="normal" font-weight="normal" stroke="none" text-decoration="none" x="526.52392578125" y="464.5">(from delegate)</text></g></g><g transform="translate(-22,-118) scale(1,1)"><g><path fill="none" stroke="none"/><text fill="#000000" font-family="Arial" font-size="13px" font-style="normal" font-weight="normal" stroke="none" text-decoration="none" x="365" y="487.5">-enemy: Character</text></g></g><g transform="translate(-22,-118) scale(1,1)"><g><path fill="none" stroke="none"/><text fill="#000000" font-family="Arial" font-size="13px" font-style="normal" font-weight="normal" stroke="none" text-decoration="none" x="365" y="510.5">«constructor»+FightCommand(character: Character, enemy: Character)</text></g></g><g transform="translate(-22,-118) scale(1,1)"><g><path fill="none" stroke="none"/><text fill="#000000" font-family="Arial" font-size="13px" font-style="normal" font-weight="normal" stroke="none" text-decoration="none" x="365" y="525.5">+execute(): void</text></g></g><g transform="translate(-22,-118) scale(1,1)"><path d="M 359 481 L 160 480 L 159 346" fill="none" stroke="#000000" stroke-miterlimit="10"/></g><g transform="translate(-22,-118) scale(1,1)"><path d="M 167.57047857742606 366.2619568885604 L 159 346 L 150.73287640410143 366.38761063612253" fill="#FFFFFF" stroke="none"/></g><g transform="translate(-22,-118) scale(1,1)"><path d="M 167.57047857742606 366.2619568885604 L 159 346 L 150.73287640410143 366.38761063612253 L 167.57047857742606 366.2619568885604" fill="none" stroke="#000000" stroke-miterlimit="10"/></g><g transform="translate(-22,-118) scale(1,1)"><rect fill="#C0C0C0" height="100" opacity="0.2" stroke="none" width="393.0205078125" x="359" y="583"/></g><g transform="translate(-22,-118) scale(1,1)"><rect fill="#ffffff" height="100" stroke="none" width="393.0205078125" x="352" y="576"/></g><g transform="translate(-22,-118) scale(1,1)"><path d="M 352 576 L 745.0205078125 576 L 745.0205078125 676 L 352 676 L 352 576 Z Z" fill="none" stroke="#000000" stroke-miterlimit="10"/></g><g transform="translate(-22,-118) scale(1,1)"><path d="M 352 616 L 745.0205078125 616" fill="none" stroke="#000000" stroke-miterlimit="10"/></g><g transform="translate(-22,-118) scale(1,1)"><path d="M 352 639 L 745.0205078125 639" fill="none" stroke="#000000" stroke-miterlimit="10"/></g><g transform="translate(-22,-118) scale(1,1)"><g><path fill="none" stroke="none"/><text fill="#000000" font-family="Arial" font-size="13px" font-style="normal" font-weight="bold" stroke="none" text-decoration="none" x="501.197998046875" y="593.5">SpellCommand</text></g></g><g transform="translate(-22,-118) scale(1,1)"><g><path fill="none" stroke="none"/><text fill="#000000" font-family="Arial" font-size="13px" font-style="normal" font-weight="normal" stroke="none" text-decoration="none" x="504.435302734375" y="608.5">(from delegate)</text></g></g><g transform="translate(-22,-118) scale(1,1)"><g><path fill="none" stroke="none"/><text fill="#000000" font-family="Arial" font-size="13px" font-style="normal" font-weight="normal" stroke="none" text-decoration="none" x="357" y="631.5">-enemy: Character</text></g></g><g transform="translate(-22,-118) scale(1,1)"><g><path fill="none" stroke="none"/><text fill="#000000" font-family="Arial" font-size="13px" font-style="normal" font-weight="normal" stroke="none" text-decoration="none" x="357" y="654.5">«constructor»+SpellCommand(character: Hero, enemy: Character)</text></g></g><g transform="translate(-22,-118) scale(1,1)"><g><path fill="none" stroke="none"/><text fill="#000000" font-family="Arial" font-size="13px" font-style="normal" font-weight="normal" stroke="none" text-decoration="none" x="357" y="669.5">+execute(): void</text></g></g><g transform="translate(-22,-118) scale(1,1)"><path d="M 351 625 L 160 624 L 159 346" fill="none" stroke="#000000" stroke-miterlimit="10"/></g><g transform="translate(-22,-118) scale(1,1)"><path d="M 167.49209334014523 366.2949341142626 L 159 346 L 150.6541312513565 366.3555023232151" fill="#FFFFFF" stroke="none"/></g><g transform="translate(-22,-118) scale(1,1)"><path d="M 167.49209334014523 366.2949341142626 L 159 346 L 150.6541312513565 366.3555023232151 L 167.49209334014523 366.2949341142626" fill="none" stroke="#000000" stroke-miterlimit="10"/></g><g transform="translate(-22,-118) scale(1,1)"><rect fill="#C0C0C0" height="430" opacity="0.2" stroke="none" width="268.76513671875" x="1031" y="199"/></g><g transform="translate(-22,-118) scale(1,1)"><rect fill="#ffffff" height="430" stroke="none" width="268.76513671875" x="1024" y="192"/></g><g transform="translate(-22,-118) scale(1,1)"><path d="M 1024 192 L 1292.76513671875 192 L 1292.76513671875 622 L 1024 622 L 1024 192 Z Z" fill="none" stroke="#000000" stroke-miterlimit="10"/></g><g transform="translate(-22,-118) scale(1,1)"><path d="M 1024 232 L 1292.76513671875 232" fill="none" stroke="#000000" stroke-miterlimit="10"/></g><g transform="translate(-22,-118) scale(1,1)"><path d="M 1024 360 L 1292.76513671875 360" fill="none" stroke="#000000" stroke-miterlimit="10"/></g><g transform="translate(-22,-118) scale(1,1)"><g><path fill="none" stroke="none"/><text fill="#000000" font-family="Arial" font-size="13px" font-style="italic" font-weight="bold" stroke="none" text-decoration="none" x="1128.034423828125" y="209.5">Character</text></g></g><g transform="translate(-22,-118) scale(1,1)"><g><path fill="none" stroke="none"/><text fill="#000000" font-family="Arial" font-size="13px" font-style="normal" font-weight="normal" stroke="none" text-decoration="none" x="1126.60302734375" y="224.5">(from mob)</text></g></g><g transform="translate(-22,-118) scale(1,1)"><g><path fill="none" stroke="none"/><text fill="#000000" font-family="Arial" font-size="13px" font-style="normal" font-weight="normal" stroke="none" text-decoration="none" x="1029" y="247.5">#hp: int</text></g></g><g transform="translate(-22,-118) scale(1,1)"><g><path fill="none" stroke="none"/><text fill="#000000" font-family="Arial" font-size="13px" font-style="normal" font-weight="normal" stroke="none" text-decoration="none" x="1029" y="262.5">-MAX_HP: int {readOnly}</text></g></g><g transform="translate(-22,-118) scale(1,1)"><g><path fill="none" stroke="none"/><text fill="#000000" font-family="Arial" font-size="13px" font-style="normal" font-weight="normal" stroke="none" text-decoration="none" x="1029" y="277.5">-ENDURANCE: int {readOnly}</text></g></g><g transform="translate(-22,-118) scale(1,1)"><g><path fill="none" stroke="none"/><text fill="#000000" font-family="Arial" font-size="13px" font-style="normal" font-weight="normal" stroke="none" text-decoration="none" x="1029" y="292.5">-FORCE: int {readOnly}</text></g></g><g transform="translate(-22,-118) scale(1,1)"><g><path fill="none" stroke="none"/><text fill="#000000" font-family="Arial" font-size="13px" font-style="normal" font-weight="normal" stroke="none" text-decoration="none" x="1029" y="307.5">#gold: int = 0</text></g></g><g transform="translate(-22,-118) scale(1,1)"><g><path fill="none" stroke="none"/><text fill="#000000" font-family="Arial" font-size="13px" font-style="normal" font-weight="normal" stroke="none" text-decoration="none" x="1029" y="322.5">#leather: int = 0</text></g></g><g transform="translate(-22,-118) scale(1,1)"><g><path fill="none" stroke="none"/><text fill="#000000" font-family="Arial" font-size="13px" font-style="normal" font-weight="normal" stroke="none" text-decoration="none" x="1029" y="337.5">#positionX: int</text></g></g><g transform="translate(-22,-118) scale(1,1)"><g><path fill="none" stroke="none"/><text fill="#000000" font-family="Arial" font-size="13px" font-style="normal" font-weight="normal" stroke="none" text-decoration="none" x="1029" y="352.5">#positionY: int</text></g></g><g transform="translate(-22,-118) scale(1,1)"><g><path fill="none" stroke="none"/><text fill="#000000" font-family="Arial" font-size="13px" font-style="normal" font-weight="normal" stroke="none" text-decoration="none" x="1029" y="375.5">«constructor»+Character(posX: int, posY: int)</text></g></g><g transform="translate(-22,-118) scale(1,1)"><g><path fill="none" stroke="none"/><text fill="#000000" font-family="Arial" font-size="13px" font-style="normal" font-weight="normal" stroke="none" text-decoration="none" x="1029" y="390.5">+changePosition(newX: int, newY: int): void</text></g></g><g transform="translate(-22,-118) scale(1,1)"><g><path fill="none" stroke="none"/><text fill="#000000" font-family="Arial" font-size="13px" font-style="normal" font-weight="normal" stroke="none" text-decoration="none" x="1029" y="405.5">+getPositionX(): int</text></g></g><g transform="translate(-22,-118) scale(1,1)"><g><path fill="none" stroke="none"/><text fill="#000000" font-family="Arial" font-size="13px" font-style="normal" font-weight="normal" stroke="none" text-decoration="none" x="1029" y="420.5">+getPositionY(): int</text></g></g><g transform="translate(-22,-118) scale(1,1)"><g><path fill="none" stroke="none"/><text fill="#000000" font-family="Arial" font-size="13px" font-style="normal" font-weight="normal" stroke="none" text-decoration="none" x="1029" y="435.5">#computeModifier(value: int): int</text></g></g><g transform="translate(-22,-118) scale(1,1)"><g><path fill="none" stroke="none"/><text fill="#000000" font-family="Arial" font-size="13px" font-style="normal" font-weight="normal" stroke="none" text-decoration="none" x="1029" y="450.5">#getBaseDamage(): int</text></g></g><g transform="translate(-22,-118) scale(1,1)"><g><path fill="none" stroke="none"/><text fill="#000000" font-family="Arial" font-size="13px" font-style="normal" font-weight="normal" stroke="none" text-decoration="none" x="1029" y="465.5">#getDamage(): int</text></g></g><g transform="translate(-22,-118) scale(1,1)"><g><path fill="none" stroke="none"/><text fill="#000000" font-family="Arial" font-size="13px" font-style="normal" font-weight="normal" stroke="none" text-decoration="none" x="1029" y="480.5">+hit(enemy: Character): void</text></g></g><g transform="translate(-22,-118) scale(1,1)"><g><path fill="none" stroke="none"/><text fill="#000000" font-family="Arial" font-size="13px" font-style="normal" font-weight="normal" stroke="none" text-decoration="none" x="1029" y="495.5">#getHit(damage: int): void</text></g></g><g transform="translate(-22,-118) scale(1,1)"><g><path fill="none" stroke="none"/><text fill="#000000" font-family="Arial" font-size="13px" font-style="normal" font-weight="normal" stroke="none" text-decoration="none" x="1029" y="510.5">+isDead(): boolean</text></g></g><g transform="translate(-22,-118) scale(1,1)"><g><path fill="none" stroke="none"/><text fill="#000000" font-family="Arial" font-size="13px" font-style="normal" font-weight="normal" stroke="none" text-decoration="none" x="1029" y="525.5">+getEndurance(): int</text></g></g><g transform="translate(-22,-118) scale(1,1)"><g><path fill="none" stroke="none"/><text fill="#000000" font-family="Arial" font-size="13px" font-style="normal" font-weight="normal" stroke="none" text-decoration="none" x="1029" y="540.5">+getForce(): int</text></g></g><g transform="translate(-22,-118) scale(1,1)"><g><path fill="none" stroke="none"/><text fill="#000000" font-family="Arial" font-size="13px" font-style="normal" font-weight="normal" stroke="none" text-decoration="none" x="1029" y="555.5">+getHp(): int</text></g></g><g transform="translate(-22,-118) scale(1,1)"><g><path fill="none" stroke="none"/><text fill="#000000" font-family="Arial" font-size="13px" font-style="normal" font-weight="normal" stroke="none" text-decoration="none" x="1029" y="570.5">+getMacHealth(): int</text></g></g><g transform="translate(-22,-118) scale(1,1)"><g><path fill="none" stroke="none"/><text fill="#000000" font-family="Arial" font-size="13px" font-style="normal" font-weight="normal" stroke="none" text-decoration="none" x="1029" y="585.5">+getLeather(): int</text></g></g><g transform="translate(-22,-118) scale(1,1)"><g><path fill="none" stroke="none"/><text fill="#000000" font-family="Arial" font-size="13px" font-style="normal" font-weight="normal" stroke="none" text-decoration="none" x="1029" y="600.5">+getGold(): int</text></g></g><g transform="translate(-22,-118) scale(1,1)"><g><path fill="none" stroke="none"/><text fill="#000000" font-family="Arial" font-size="13px" font-style="italic" font-weight="normal" stroke="none" text-decoration="none" x="1029" y="615.5">+getName(): String</text></g></g><g transform="translate(-22,-118) scale(1,1)"><path d="M 1024 240 L 912 240 L 912 504 L 781 504" fill="none" stroke="#000000" stroke-miterlimit="10"/></g><g transform="translate(-22,-118) scale(1,1)"><g><path fill="none" stroke="none"/><text fill="#000000" font-family="Arial" font-size="13px" font-style="normal" font-weight="normal" stroke="none" text-decoration="none" x="782.5" y="497.5">+0..*</text></g></g><g transform="translate(-22,-118) scale(1,1)"><g><path fill="none" stroke="none"/><text fill="#000000" font-family="Arial" font-size="13px" font-style="normal" font-weight="normal" stroke="none" text-decoration="none" x="950.5" y="258.5">+2 receiver</text></g></g><g transform="translate(-22,-118) scale(1,1)"><path d="M 745 625 L 936 625 M 936 625 A 8 8 0 0 1 944 633 L 944 800 M 944 800 A 8 8 0 0 0 952 808 L 1040 808" fill="none" stroke="#000000" stroke-miterlimit="10"/></g><g transform="translate(-22,-118) scale(1,1)"><g><path fill="none" stroke="none"/><text fill="#000000" font-family="Arial" font-size="13px" font-style="normal" font-weight="normal" stroke="none" text-decoration="none" x="957.5" y="802.5">+1 receiver</text></g></g><g transform="translate(-22,-118) scale(1,1)"><g><path fill="none" stroke="none"/><text fill="#000000" font-family="Arial" font-size="13px" font-style="normal" font-weight="normal" stroke="none" text-decoration="none" x="756.5" y="614.5">+0..*</text></g></g><g transform="translate(-22,-118) scale(1,1)"><rect fill="#C0C0C0" height="87" opacity="0.2" stroke="none" width="294.01611328125" x="359" y="798"/></g><g transform="translate(-22,-118) scale(1,1)"><rect fill="#ffffff" height="87" stroke="none" width="294.01611328125" x="352" y="791"/></g><g transform="translate(-22,-118) scale(1,1)"><path d="M 352 791 L 646.01611328125 791 L 646.01611328125 878 L 352 878 L 352 791 Z Z" fill="none" stroke="#000000" stroke-miterlimit="10"/></g><g transform="translate(-22,-118) scale(1,1)"><path d="M 352 831 L 646.01611328125 831" fill="none" stroke="#000000" stroke-miterlimit="10"/></g><g transform="translate(-22,-118) scale(1,1)"><path d="M 352 841 L 646.01611328125 841" fill="none" stroke="#000000" stroke-miterlimit="10"/></g><g transform="translate(-22,-118) scale(1,1)"><g><path fill="none" stroke="none"/><text fill="#000000" font-family="Arial" font-size="13px" font-style="normal" font-weight="bold" stroke="none" text-decoration="none" x="441.939453125" y="808.5">UseItemCommand</text></g></g><g transform="translate(-22,-118) scale(1,1)"><g><path fill="none" stroke="none"/><text fill="#000000" font-family="Arial" font-size="13px" font-style="normal" font-weight="normal" stroke="none" text-decoration="none" x="454.93310546875" y="823.5">(from delegate)</text></g></g><g transform="translate(-22,-118) scale(1,1)"><g><path fill="none" stroke="none"/><text fill="#000000" font-family="Arial" font-size="13px" font-style="normal" font-weight="normal" stroke="none" text-decoration="none" x="357" y="856.5">«constructor»+UseItemCommand(receiver: Hero)</text></g></g><g transform="translate(-22,-118) scale(1,1)"><g><path fill="none" stroke="none"/><text fill="#000000" font-family="Arial" font-size="13px" font-style="normal" font-weight="normal" stroke="none" text-decoration="none" x="357" y="871.5">+execute(): void</text></g></g><g transform="translate(-22,-118) scale(1,1)"><path d="M 351 833 L 160 832 L 159 346" fill="none" stroke="#000000" stroke-miterlimit="10"/></g><g transform="translate(-22,-118) scale(1,1)"><path d="M 167.46083930865188 366.3079836072706 L 159 346 L 150.62280392875115 366.3426297706037" fill="#FFFFFF" stroke="none"/></g><g transform="translate(-22,-118) scale(1,1)"><path d="M 167.46083930865188 366.3079836072706 L 159 346 L 150.62280392875115 366.3426297706037 L 167.46083930865188 366.3079836072706" fill="none" stroke="#000000" stroke-miterlimit="10"/></g><g transform="translate(-22,-118) scale(1,1)"><rect fill="#C0C0C0" height="310" opacity="0.2" stroke="none" width="239.8642578125" x="1047" y="775"/></g><g transform="translate(-22,-118) scale(1,1)"><rect fill="#ffffff" height="310" stroke="none" width="239.8642578125" x="1040" y="768"/></g><g transform="translate(-22,-118) scale(1,1)"><path d="M 1040 768 L 1279.8642578125 768 L 1279.8642578125 1078 L 1040 1078 L 1040 768 Z Z" fill="none" stroke="#000000" stroke-miterlimit="10"/></g><g transform="translate(-22,-118) scale(1,1)"><path d="M 1040 808 L 1279.8642578125 808" fill="none" stroke="#000000" stroke-miterlimit="10"/></g><g transform="translate(-22,-118) scale(1,1)"><path d="M 1040 861 L 1279.8642578125 861" fill="none" stroke="#000000" stroke-miterlimit="10"/></g><g transform="translate(-22,-118) scale(1,1)"><g><path fill="none" stroke="none"/><text fill="#000000" font-family="Arial" font-size="13px" font-style="italic" font-weight="bold" stroke="none" text-decoration="none" x="1145.123046875" y="785.5">Hero</text></g></g><g transform="translate(-22,-118) scale(1,1)"><g><path fill="none" stroke="none"/><text fill="#000000" font-family="Arial" font-size="13px" font-style="normal" font-weight="normal" stroke="none" text-decoration="none" x="1128.152587890625" y="800.5">(from mob)</text></g></g><g transform="translate(-22,-118) scale(1,1)"><g><path fill="none" stroke="none"/><text fill="#000000" font-family="Arial" font-size="13px" font-style="normal" font-weight="normal" stroke="none" text-decoration="none" x="1045" y="823.5">-mp: int</text></g></g><g transform="translate(-22,-118) scale(1,1)"><g><path fill="none" stroke="none"/><text fill="#000000" font-family="Arial" font-size="13px" font-style="normal" font-weight="normal" stroke="none" text-decoration="none" x="1045" y="838.5">-maxMagic: int</text></g></g><g transform="translate(-22,-118) scale(1,1)"><g><path fill="none" stroke="none"/><text fill="#000000" font-family="Arial" font-size="13px" font-style="normal" font-weight="normal" stroke="none" text-decoration="none" x="1045" y="853.5">-items: Item[*] {collection="ArrayList"}</text></g></g><g transform="translate(-22,-118) scale(1,1)"><g><path fill="none" stroke="none"/><text fill="#000000" font-family="Arial" font-size="13px" font-style="normal" font-weight="normal" stroke="none" text-decoration="none" x="1045" y="876.5">«constructor»+Hero()</text></g></g><g transform="translate(-22,-118) scale(1,1)"><g><path fill="none" stroke="none"/><text fill="#000000" font-family="Arial" font-size="13px" font-style="normal" font-weight="normal" stroke="none" text-decoration="none" x="1045" y="891.5">+restoreHealth()</text></g></g><g transform="translate(-22,-118) scale(1,1)"><g><path fill="none" stroke="none"/><text fill="#000000" font-family="Arial" font-size="13px" font-style="normal" font-weight="normal" stroke="none" text-decoration="none" x="1045" y="906.5">+addItem()</text></g></g><g transform="translate(-22,-118) scale(1,1)"><g><path fill="none" stroke="none"/><text fill="#000000" font-family="Arial" font-size="13px" font-style="normal" font-weight="normal" stroke="none" text-decoration="none" x="1045" y="921.5">+UseItem()</text></g></g><g transform="translate(-22,-118) scale(1,1)"><g><path fill="none" stroke="none"/><text fill="#000000" font-family="Arial" font-size="13px" font-style="normal" font-weight="normal" stroke="none" text-decoration="none" x="1045" y="936.5">+throwSpell()</text></g></g><g transform="translate(-22,-118) scale(1,1)"><g><path fill="none" stroke="none"/><text fill="#000000" font-family="Arial" font-size="13px" font-style="normal" font-weight="normal" stroke="none" text-decoration="none" x="1045" y="951.5">+hit()</text></g></g><g transform="translate(-22,-118) scale(1,1)"><g><path fill="none" stroke="none"/><text fill="#000000" font-family="Arial" font-size="13px" font-style="normal" font-weight="normal" stroke="none" text-decoration="none" x="1045" y="966.5">+addHp()</text></g></g><g transform="translate(-22,-118) scale(1,1)"><g><path fill="none" stroke="none"/><text fill="#000000" font-family="Arial" font-size="13px" font-style="normal" font-weight="normal" stroke="none" text-decoration="none" x="1045" y="981.5">+addMp()</text></g></g><g transform="translate(-22,-118) scale(1,1)"><g><path fill="none" stroke="none"/><text fill="#000000" font-family="Arial" font-size="13px" font-style="normal" font-weight="normal" stroke="none" text-decoration="none" x="1045" y="996.5">-addGold()</text></g></g><g transform="translate(-22,-118) scale(1,1)"><g><path fill="none" stroke="none"/><text fill="#000000" font-family="Arial" font-size="13px" font-style="normal" font-weight="normal" stroke="none" text-decoration="none" x="1045" y="1011.5">-addLeather()</text></g></g><g transform="translate(-22,-118) scale(1,1)"><g><path fill="none" stroke="none"/><text fill="#000000" font-family="Arial" font-size="13px" font-style="normal" font-weight="normal" stroke="none" text-decoration="none" x="1045" y="1026.5">+getMp()</text></g></g><g transform="translate(-22,-118) scale(1,1)"><g><path fill="none" stroke="none"/><text fill="#000000" font-family="Arial" font-size="13px" font-style="normal" font-weight="normal" stroke="none" text-decoration="none" x="1045" y="1041.5">+getMaxMagic()</text></g></g><g transform="translate(-22,-118) scale(1,1)"><g><path fill="none" stroke="none"/><text fill="#000000" font-family="Arial" font-size="13px" font-style="normal" font-weight="normal" stroke="none" text-decoration="none" x="1045" y="1056.5">+canThrowSpell()</text></g></g><g transform="translate(-22,-118) scale(1,1)"><g><path fill="none" stroke="none"/><text fill="#000000" font-family="Arial" font-size="13px" font-style="normal" font-weight="normal" stroke="none" text-decoration="none" x="1045" y="1071.5">+toString()</text></g></g><g transform="translate(-22,-118) scale(1,1)"><path d="M 1159 767 L 1158 623" fill="none" stroke="#000000" stroke-miterlimit="10"/></g><g transform="translate(-22,-118) scale(1,1)"><path d="M 1166.5599773726565 643.2663955201612 L 1158 623 L 1149.7223123444942 643.3833237495235" fill="#FFFFFF" stroke="none"/></g><g transform="translate(-22,-118) scale(1,1)"><path d="M 1166.5599773726565 643.2663955201612 L 1158 623 L 1149.7223123444942 643.3833237495235 L 1166.5599773726565 643.2663955201612" fill="none" stroke="#000000" stroke-miterlimit="10"/></g><g transform="translate(-22,-118) scale(1,1)"><path d="M 647 833 L 880 832 L 880 928 L 1039 925" fill="none" stroke="#000000" stroke-miterlimit="10"/></g><g transform="translate(-22,-118) scale(1,1)"><g><path fill="none" stroke="none"/><text fill="#000000" font-family="Arial" font-size="13px" font-style="normal" font-weight="normal" stroke="none" text-decoration="none" x="658.5" y="821.5">+0..*</text></g></g><g transform="translate(-22,-118) scale(1,1)"><g><path fill="none" stroke="none"/><text fill="#000000" font-family="Arial" font-size="13px" font-style="normal" font-weight="normal" stroke="none" text-decoration="none" x="958.5" y="913.5">+1 receiver</text></g></g><g transform="translate(-22,-118) scale(1,1)"><path d="M 544 576 L 544 560 L 952 560 L 952 496 L 1024 496" fill="none" stroke="#000000" stroke-miterlimit="10"/></g><g transform="translate(-22,-118) scale(1,1)"><g><path fill="none" stroke="none"/><text fill="#000000" font-family="Arial" font-size="13px" font-style="normal" font-weight="normal" stroke="none" text-decoration="none" x="550.5" y="569.5">+0..*</text></g></g><g transform="translate(-22,-118) scale(1,1)"><g><path fill="none" stroke="none"/><text fill="#000000" font-family="Arial" font-size="13px" font-style="normal" font-weight="normal" stroke="none" text-decoration="none" x="990.5" y="485.5">+1</text></g></g><g transform="translate(-22,-118) scale(1,1)"><rect fill="#C0C0C0" height="100" opacity="0.2" stroke="none" width="432.76953125" x="359" y="983"/></g><g transform="translate(-22,-118) scale(1,1)"><rect fill="#ffffff" height="100" stroke="none" width="432.76953125" x="352" y="976"/></g><g transform="translate(-22,-118) scale(1,1)"><path d="M 352 976 L 784.76953125 976 L 784.76953125 1076 L 352 1076 L 352 976 Z Z" fill="none" stroke="#000000" stroke-miterlimit="10"/></g><g transform="translate(-22,-118) scale(1,1)"><path d="M 352 1016 L 784.76953125 1016" fill="none" stroke="#000000" stroke-miterlimit="10"/></g><g transform="translate(-22,-118) scale(1,1)"><path d="M 352 1039 L 784.76953125 1039" fill="none" stroke="#000000" stroke-miterlimit="10"/></g><g transform="translate(-22,-118) scale(1,1)"><g><path fill="none" stroke="none"/><text fill="#000000" font-family="Arial" font-size="13px" font-style="normal" font-weight="bold" stroke="none" text-decoration="none" x="486.027099609375" y="993.5">MoveCharactereCommand</text></g></g><g transform="translate(-22,-118) scale(1,1)"><g><path fill="none" stroke="none"/><text fill="#000000" font-family="Arial" font-size="13px" font-style="normal" font-weight="normal" stroke="none" text-decoration="none" x="524.309814453125" y="1008.5">(from delegate)</text></g></g><g transform="translate(-22,-118) scale(1,1)"><g><path fill="none" stroke="none"/><text fill="#000000" font-family="Arial" font-size="13px" font-style="normal" font-weight="normal" stroke="none" text-decoration="none" x="357" y="1031.5">-movement: char</text></g></g><g transform="translate(-22,-118) scale(1,1)"><g><path fill="none" stroke="none"/><text fill="#000000" font-family="Arial" font-size="13px" font-style="normal" font-weight="normal" stroke="none" text-decoration="none" x="357" y="1054.5">«constructor»+MoveCharactereCommand(receiver: Map, operation: char)</text></g></g><g transform="translate(-22,-118) scale(1,1)"><g><path fill="none" stroke="none"/><text fill="#000000" font-family="Arial" font-size="13px" font-style="normal" font-weight="normal" stroke="none" text-decoration="none" x="357" y="1069.5">+execute(): void</text></g></g><g transform="translate(-22,-118) scale(1,1)"><path d="M 351 1029 L 160 1032 L 159 346" fill="none" stroke="#000000" stroke-miterlimit="10"/></g><g transform="translate(-22,-118) scale(1,1)"><path d="M 167.44865532516096 366.31305548647543 L 159 346 L 150.61060219122376 366.3376007534345" fill="#FFFFFF" stroke="none"/></g><g transform="translate(-22,-118) scale(1,1)"><path d="M 167.44865532516096 366.31305548647543 L 159 346 L 150.61060219122376 366.3376007534345 L 167.44865532516096 366.31305548647543" fill="none" stroke="#000000" stroke-miterlimit="10"/></g><g transform="translate(-22,-118) scale(1,1)"><rect fill="#C0C0C0" height="340" opacity="0.2" stroke="none" width="276.693359375" x="871" y="1135"/></g><g transform="translate(-22,-118) scale(1,1)"><rect fill="#ffffff" height="340" stroke="none" width="276.693359375" x="864" y="1128"/></g><g transform="translate(-22,-118) scale(1,1)"><path d="M 864 1128 L 1140.693359375 1128 L 1140.693359375 1468 L 864 1468 L 864 1128 Z Z" fill="none" stroke="#000000" stroke-miterlimit="10"/></g><g transform="translate(-22,-118) scale(1,1)"><path d="M 864 1168 L 1140.693359375 1168" fill="none" stroke="#000000" stroke-miterlimit="10"/></g><g transform="translate(-22,-118) scale(1,1)"><path d="M 864 1266 L 1140.693359375 1266" fill="none" stroke="#000000" stroke-miterlimit="10"/></g><g transform="translate(-22,-118) scale(1,1)"><g><path fill="none" stroke="none"/><text fill="#000000" font-family="Arial" font-size="13px" font-style="normal" font-weight="bold" stroke="none" text-decoration="none" x="989.3466796875" y="1145.5">Map</text></g></g><g transform="translate(-22,-118) scale(1,1)"><g><path fill="none" stroke="none"/><text fill="#000000" font-family="Arial" font-size="13px" font-style="normal" font-weight="normal" stroke="none" text-decoration="none" x="970.567138671875" y="1160.5">(from map)</text></g></g><g transform="translate(-22,-118) scale(1,1)"><g><path fill="none" stroke="none"/><text fill="#000000" font-family="Arial" font-size="13px" font-style="normal" font-weight="normal" stroke="none" text-decoration="none" x="869" y="1183.5">-SIZE: int {readOnly}</text></g></g><g transform="translate(-22,-118) scale(1,1)"><g><path fill="none" stroke="none"/><text fill="#000000" font-family="Arial" font-size="13px" font-style="normal" font-weight="normal" stroke="none" text-decoration="none" x="869" y="1198.5">-N_MONSTERS: int {readOnly}</text></g></g><g transform="translate(-22,-118) scale(1,1)"><g><path fill="none" stroke="none"/><text fill="#000000" font-family="Arial" font-size="13px" font-style="normal" font-weight="normal" stroke="none" text-decoration="none" x="869" y="1213.5">-monsters: Monster[*] {collection="ArrayList"}</text></g></g><g transform="translate(-22,-118) scale(1,1)"><g><path fill="none" stroke="none"/><text fill="#000000" font-family="Arial" font-size="13px" font-style="normal" font-weight="normal" stroke="none" text-decoration="none" x="869" y="1228.5">-hero: Hero</text></g></g><g transform="translate(-22,-118) scale(1,1)"><g><path fill="none" stroke="none"/><text fill="#000000" font-family="Arial" font-size="13px" font-style="normal" font-weight="normal" stroke="none" text-decoration="none" x="869" y="1243.5">-nearbyEnemy: Monster = null</text></g></g><g transform="translate(-22,-118) scale(1,1)"><g><path fill="none" stroke="none"/><text fill="#000000" font-family="Arial" font-size="13px" font-style="normal" font-weight="normal" stroke="none" text-decoration="none" x="869" y="1258.5">-monsterGenerator: MonstersCreator</text></g></g><g transform="translate(-22,-118) scale(1,1)"><g><path fill="none" stroke="none"/><text fill="#000000" font-family="Arial" font-size="13px" font-style="normal" font-weight="normal" stroke="none" text-decoration="none" x="869" y="1281.5">«constructor»+Map(size: int)</text></g></g><g transform="translate(-22,-118) scale(1,1)"><g><path fill="none" stroke="none"/><text fill="#000000" font-family="Arial" font-size="13px" font-style="normal" font-weight="normal" stroke="none" text-decoration="none" x="869" y="1296.5">-generatePatch(type: SQUARE_TYPE): void</text></g></g><g transform="translate(-22,-118) scale(1,1)"><g><path fill="none" stroke="none"/><text fill="#000000" font-family="Arial" font-size="13px" font-style="normal" font-weight="normal" stroke="none" text-decoration="none" x="869" y="1311.5">-createMap(): void</text></g></g><g transform="translate(-22,-118) scale(1,1)"><g><path fill="none" stroke="none"/><text fill="#000000" font-family="Arial" font-size="13px" font-style="normal" font-weight="normal" stroke="none" text-decoration="none" x="869" y="1326.5">-generateMonster(): void</text></g></g><g transform="translate(-22,-118) scale(1,1)"><g><path fill="none" stroke="none"/><text fill="#000000" font-family="Arial" font-size="13px" font-style="normal" font-weight="normal" stroke="none" text-decoration="none" x="869" y="1341.5">+removeMonster(deadMonster: Monster): void</text></g></g><g transform="translate(-22,-118) scale(1,1)"><g><path fill="none" stroke="none"/><text fill="#000000" font-family="Arial" font-size="13px" font-style="normal" font-weight="normal" stroke="none" text-decoration="none" x="869" y="1356.5">+getNumberOfMonster(): int</text></g></g><g transform="translate(-22,-118) scale(1,1)"><g><path fill="none" stroke="none"/><text fill="#000000" font-family="Arial" font-size="13px" font-style="normal" font-weight="normal" stroke="none" text-decoration="none" x="869" y="1371.5">+getSize(): int</text></g></g><g transform="translate(-22,-118) scale(1,1)"><g><path fill="none" stroke="none"/><text fill="#000000" font-family="Arial" font-size="13px" font-style="normal" font-weight="normal" stroke="none" text-decoration="none" x="869" y="1386.5">+setHero(hero: Hero): void</text></g></g><g transform="translate(-22,-118) scale(1,1)"><g><path fill="none" stroke="none"/><text fill="#000000" font-family="Arial" font-size="13px" font-style="normal" font-weight="normal" stroke="none" text-decoration="none" x="869" y="1401.5">+isNearMonster(): boolean</text></g></g><g transform="translate(-22,-118) scale(1,1)"><g><path fill="none" stroke="none"/><text fill="#000000" font-family="Arial" font-size="13px" font-style="normal" font-weight="normal" stroke="none" text-decoration="none" x="869" y="1416.5">+getNearbyMonster(): Monster</text></g></g><g transform="translate(-22,-118) scale(1,1)"><g><path fill="none" stroke="none"/><text fill="#000000" font-family="Arial" font-size="13px" font-style="normal" font-weight="normal" stroke="none" text-decoration="none" x="869" y="1431.5">+addMonster(monster: Monster): void</text></g></g><g transform="translate(-22,-118) scale(1,1)"><g><path fill="none" stroke="none"/><text fill="#000000" font-family="Arial" font-size="13px" font-style="normal" font-weight="normal" stroke="none" text-decoration="none" x="869" y="1446.5">+moveCharacter(direction: char): void</text></g></g><g transform="translate(-22,-118) scale(1,1)"><g><path fill="none" stroke="none"/><text fill="#000000" font-family="Arial" font-size="13px" font-style="normal" font-weight="normal" stroke="none" text-decoration="none" x="869" y="1461.5">+display(): void</text></g></g><g transform="translate(-22,-118) scale(1,1)"><path d="M 567 1076 L 567 1304 L 864 1304" fill="none" stroke="#000000" stroke-miterlimit="10"/></g><g transform="translate(-22,-118) scale(1,1)"><g><path fill="none" stroke="none"/><text fill="#000000" font-family="Arial" font-size="13px" font-style="normal" font-weight="normal" stroke="none" text-decoration="none" x="790.5" y="1298.5">+1 receiver</text></g></g><g transform="translate(-22,-118) scale(1,1)"><g><path fill="none" stroke="none"/><text fill="#000000" font-family="Arial" font-size="13px" font-style="normal" font-weight="normal" stroke="none" text-decoration="none" x="568.5" y="1105.5">+0..*</text></g></g><g transform="translate(-22,-118) scale(1,1)"><rect fill="#C0C0C0" height="200" opacity="0.2" stroke="none" width="203.7333984375" x="511" y="135"/></g><g transform="translate(-22,-118) scale(1,1)"><rect fill="#ffffff" height="200" stroke="none" width="203.7333984375" x="504" y="128"/></g><g transform="translate(-22,-118) scale(1,1)"><path d="M 504 128 L 707.7333984375 128 L 707.7333984375 328 L 504 328 L 504 128 Z Z" fill="none" stroke="#000000" stroke-miterlimit="10"/></g><g transform="translate(-22,-118) scale(1,1)"><path d="M 504 168 L 707.7333984375 168" fill="none" stroke="#000000" stroke-miterlimit="10"/></g><g transform="translate(-22,-118) scale(1,1)"><g><path fill="none" stroke="none"/><text fill="#000000" font-family="Arial" font-size="13px" font-style="normal" font-weight="bold" stroke="none" text-decoration="none" x="566.84765625" y="145.5">GameMaster</text></g></g><g transform="translate(-22,-118) scale(1,1)"><g><path fill="none" stroke="none"/><text fill="#000000" font-family="Arial" font-size="13px" font-style="normal" font-weight="normal" stroke="none" text-decoration="none" x="579.86669921875" y="160.5">(from ex)</text></g></g><g transform="translate(-22,-118) scale(1,1)"><g><path fill="none" stroke="none"/><text fill="#000000" font-family="Arial" font-size="13px" font-style="normal" font-weight="normal" stroke="none" text-decoration="none" x="509" y="183.5">-N_ENEMIES: int = 10 {readOnly}</text><path d="M 509 185.5 L 703.7333984375 185.5" fill="none" stroke="#000000" stroke-miterlimit="10"/></g></g><g transform="translate(-22,-118) scale(1,1)"><g><path fill="none" stroke="none"/><text fill="#000000" font-family="Arial" font-size="13px" font-style="normal" font-weight="normal" stroke="none" text-decoration="none" x="509" y="198.5">-hero: Hero</text></g></g><g transform="translate(-22,-118) scale(1,1)"><g><path fill="none" stroke="none"/><text fill="#000000" font-family="Arial" font-size="13px" font-style="normal" font-weight="normal" stroke="none" text-decoration="none" x="509" y="213.5">-enemy: Monster</text></g></g><g transform="translate(-22,-118) scale(1,1)"><g><path fill="none" stroke="none"/><text fill="#000000" font-family="Arial" font-size="13px" font-style="normal" font-weight="normal" stroke="none" text-decoration="none" x="509" y="228.5">-enemyCount: int = 0</text></g></g><g transform="translate(-22,-118) scale(1,1)"><g><path fill="none" stroke="none"/><text fill="#000000" font-family="Arial" font-size="13px" font-style="normal" font-weight="normal" stroke="none" text-decoration="none" x="509" y="243.5">-r: Random</text></g></g><g transform="translate(-22,-118) scale(1,1)"><g><path fill="none" stroke="none"/><text fill="#000000" font-family="Arial" font-size="13px" font-style="normal" font-weight="normal" stroke="none" text-decoration="none" x="509" y="258.5">-map: Map</text></g></g><g transform="translate(-22,-118) scale(1,1)"><g><path fill="none" stroke="none"/><text fill="#000000" font-family="Arial" font-size="13px" font-style="normal" font-weight="normal" stroke="none" text-decoration="none" x="509" y="273.5">-command: Command</text></g></g><g transform="translate(-22,-118) scale(1,1)"><g><path fill="none" stroke="none"/><text fill="#000000" font-family="Arial" font-size="13px" font-style="normal" font-weight="normal" stroke="none" text-decoration="none" x="509" y="288.5">~myScanner: Scanner</text></g></g><g transform="translate(-22,-118) scale(1,1)"><g><path fill="none" stroke="none"/><text fill="#000000" font-family="Arial" font-size="13px" font-style="normal" font-weight="normal" stroke="none" text-decoration="none" x="509" y="303.5">-shop: Shop</text></g></g><g transform="translate(-22,-118) scale(1,1)"><path d="M 504 296 L 287 296" fill="none" stroke="#000000" stroke-miterlimit="10"/></g><g transform="translate(-22,-118) scale(1,1)"><g><path fill="none" stroke="none"/><text fill="#000000" font-family="Arial" font-size="13px" font-style="normal" font-weight="normal" stroke="none" text-decoration="none" x="279.5" y="313.5">+1..*</text></g></g><g transform="translate(-22,-118) scale(1,1)"><path d="M 344 176 L 432 176 L 442 186 L 442 225 L 344 225 L 344 176" fill="#ffffff" stroke="none"/></g><g transform="translate(-22,-118) scale(1,1)"><path d="M 344 176 L 432 176 L 442 186 L 442 225 L 344 225 L 344 176 L 344 176" fill="none" stroke="#000000" stroke-miterlimit="10"/></g><g transform="translate(-22,-118) scale(1,1)"><path d="M 432 176 L 432 186 L 442 186 L 432 176" fill="none" stroke="#000000" stroke-miterlimit="10"/></g><g transform="translate(-22,-118) scale(1,1)"><g><path fill="none" stroke="none"/><text fill="#000000" font-family="Arial" font-size="13px" font-style="normal" font-weight="normal" stroke="none" text-decoration="none" x="349" y="190">GameMaster</text><text fill="#000000" font-family="Arial" font-size="13px" font-style="normal" font-weight="normal" stroke="none" text-decoration="none" x="349" y="203">both client and</text><text fill="#000000" font-family="Arial" font-size="13px" font-style="normal" font-weight="normal" stroke="none" text-decoration="none" x="349" y="216">invoker</text></g></g><g transform="translate(-22,-118) scale(1,1)"><path d="M 395 296 L 394 227" fill="none" stroke="#000000" stroke-dasharray="3" stroke-miterlimit="10"/></g></g></svg>