<?xml version="1.0" encoding="UTF-8" standalone="no"?><svg xmlns="http://www.w3.org/2000/svg" xmlns:xlink="http://www.w3.org/1999/xlink" height="766" version="1.1" width="1388.6279296875"><defs/><g><g transform="translate(-6,-158) scale(1,1)"><rect fill="#C0C0C0" height="87" opacity="0.2" stroke="none" width="255.02880859375" x="618" y="423"/></g><g transform="translate(-6,-158) scale(1,1)"><rect fill="#ffffff" height="87" stroke="none" width="255.02880859375" x="611" y="416"/></g><g transform="translate(-6,-158) scale(1,1)"><path d="M 611 416 L 866.02880859375 416 L 866.02880859375 503 L 611 503 L 611 416 Z Z" fill="none" stroke="#000000" stroke-miterlimit="10"/></g><g transform="translate(-6,-158) scale(1,1)"><path d="M 611 456 L 866.02880859375 456" fill="none" stroke="#000000" stroke-miterlimit="10"/></g><g transform="translate(-6,-158) scale(1,1)"><path d="M 611 466 L 866.02880859375 466" fill="none" stroke="#000000" stroke-miterlimit="10"/></g><g transform="translate(-6,-158) scale(1,1)"><g><path fill="none" stroke="none"/><text fill="#000000" font-family="Arial" font-size="13px" font-style="normal" font-weight="bold" stroke="none" text-decoration="none" x="686.501708984375" y="433.5">MonstersCreator</text></g></g><g transform="translate(-6,-158) scale(1,1)"><g><path fill="none" stroke="none"/><text fill="#000000" font-family="Arial" font-size="13px" font-style="normal" font-weight="normal" stroke="none" text-decoration="none" x="694.439453125" y="448.5">(from delegate)</text></g></g><g transform="translate(-6,-158) scale(1,1)"><g><path fill="none" stroke="none"/><text fill="#000000" font-family="Arial" font-size="13px" font-style="normal" font-weight="normal" stroke="none" text-decoration="none" x="616" y="481.5">«constructor»+MonstersCreator()</text></g></g><g transform="translate(-6,-158) scale(1,1)"><g><path fill="none" stroke="none"/><text fill="#000000" font-family="Arial" font-size="13px" font-style="normal" font-weight="normal" stroke="none" text-decoration="none" x="616" y="496.5">+createMobs(posX: int, posY: int): Monster</text></g></g><g transform="translate(-6,-158) scale(1,1)"><path d="M 734.074951171875 277.5 C 734.074951171875 271.1487248 739.223675971875 266 745.574951171875 266 C 751.926226371875 266 757.074951171875 271.1487248 757.074951171875 277.5 C 757.074951171875 283.8512752 751.926226371875 289 745.574951171875 289 C 739.223675971875 289 734.074951171875 283.8512752 734.074951171875 277.5 Z" fill="#C0C0C0" opacity="0.2" stroke="none"/></g><g transform="translate(-6,-158) scale(1,1)"><path d="M 727.074951171875 270.5 C 727.074951171875 264.1487248 732.223675971875 259 738.574951171875 259 C 744.926226371875 259 750.074951171875 264.1487248 750.074951171875 270.5 C 750.074951171875 276.8512752 744.926226371875 282 738.574951171875 282 C 732.223675971875 282 727.074951171875 276.8512752 727.074951171875 270.5 Z" fill="#ffffff" stroke="none"/></g><g transform="translate(-6,-158) scale(1,1)"><path d="M 727.074951171875 270.5 C 727.074951171875 264.1487248 732.223675971875 259 738.574951171875 259 C 744.926226371875 259 750.074951171875 264.1487248 750.074951171875 270.5 C 750.074951171875 276.8512752 744.926226371875 282 738.574951171875 282 C 732.223675971875 282 727.074951171875 276.8512752 727.074951171875 270.5 Z" fill="none" stroke="#000000" stroke-miterlimit="10"/></g><g transform="translate(-6,-158) scale(1,1)"><g><path fill="none" stroke="none"/><text fill="#000000" font-family="Arial" font-size="13px" font-style="normal" font-weight="bold" stroke="none" text-decoration="none" x="702.101318359375" y="299.5">MobCreator</text></g></g><g transform="translate(-6,-158) scale(1,1)"><g><path fill="none" stroke="none"/><text fill="#000000" font-family="Arial" font-size="13px" font-style="normal" font-weight="normal" stroke="none" text-decoration="none" x="694.5" y="314.5">(from delegate)</text></g></g><g transform="translate(-6,-158) scale(1,1)"><rect fill="#C0C0C0" height="340" opacity="0.2" stroke="none" width="276.693359375" x="23" y="303"/></g><g transform="translate(-6,-158) scale(1,1)"><rect fill="#ffffff" height="340" stroke="none" width="276.693359375" x="16" y="296"/></g><g transform="translate(-6,-158) scale(1,1)"><path d="M 16 296 L 292.693359375 296 L 292.693359375 636 L 16 636 L 16 296 Z Z" fill="none" stroke="#000000" stroke-miterlimit="10"/></g><g transform="translate(-6,-158) scale(1,1)"><path d="M 16 336 L 292.693359375 336" fill="none" stroke="#000000" stroke-miterlimit="10"/></g><g transform="translate(-6,-158) scale(1,1)"><path d="M 16 434 L 292.693359375 434" fill="none" stroke="#000000" stroke-miterlimit="10"/></g><g transform="translate(-6,-158) scale(1,1)"><g><path fill="none" stroke="none"/><text fill="#000000" font-family="Arial" font-size="13px" font-style="normal" font-weight="bold" stroke="none" text-decoration="none" x="141.3466796875" y="313.5">Map</text></g></g><g transform="translate(-6,-158) scale(1,1)"><g><path fill="none" stroke="none"/><text fill="#000000" font-family="Arial" font-size="13px" font-style="normal" font-weight="normal" stroke="none" text-decoration="none" x="122.567138671875" y="328.5">(from map)</text></g></g><g transform="translate(-6,-158) scale(1,1)"><g><path fill="none" stroke="none"/><text fill="#000000" font-family="Arial" font-size="13px" font-style="normal" font-weight="normal" stroke="none" text-decoration="none" x="21" y="351.5">-SIZE: int {readOnly}</text></g></g><g transform="translate(-6,-158) scale(1,1)"><g><path fill="none" stroke="none"/><text fill="#000000" font-family="Arial" font-size="13px" font-style="normal" font-weight="normal" stroke="none" text-decoration="none" x="21" y="366.5">-N_MONSTERS: int {readOnly}</text></g></g><g transform="translate(-6,-158) scale(1,1)"><g><path fill="none" stroke="none"/><text fill="#000000" font-family="Arial" font-size="13px" font-style="normal" font-weight="normal" stroke="none" text-decoration="none" x="21" y="381.5">-monsters: Monster[*] {collection="ArrayList"}</text></g></g><g transform="translate(-6,-158) scale(1,1)"><g><path fill="none" stroke="none"/><text fill="#000000" font-family="Arial" font-size="13px" font-style="normal" font-weight="normal" stroke="none" text-decoration="none" x="21" y="396.5">-hero: Hero</text></g></g><g transform="translate(-6,-158) scale(1,1)"><g><path fill="none" stroke="none"/><text fill="#000000" font-family="Arial" font-size="13px" font-style="normal" font-weight="normal" stroke="none" text-decoration="none" x="21" y="411.5">-nearbyEnemy: Monster = null</text></g></g><g transform="translate(-6,-158) scale(1,1)"><g><path fill="none" stroke="none"/><text fill="#000000" font-family="Arial" font-size="13px" font-style="normal" font-weight="normal" stroke="none" text-decoration="none" x="21" y="426.5">-monsterGenerator: MonstersCreator</text></g></g><g transform="translate(-6,-158) scale(1,1)"><g><path fill="none" stroke="none"/><text fill="#000000" font-family="Arial" font-size="13px" font-style="normal" font-weight="normal" stroke="none" text-decoration="none" x="21" y="449.5">«constructor»+Map(size: int)</text></g></g><g transform="translate(-6,-158) scale(1,1)"><g><path fill="none" stroke="none"/><text fill="#000000" font-family="Arial" font-size="13px" font-style="normal" font-weight="normal" stroke="none" text-decoration="none" x="21" y="464.5">-generatePatch(type: SQUARE_TYPE): void</text></g></g><g transform="translate(-6,-158) scale(1,1)"><g><path fill="none" stroke="none"/><text fill="#000000" font-family="Arial" font-size="13px" font-style="normal" font-weight="normal" stroke="none" text-decoration="none" x="21" y="479.5">-createMap(): void</text></g></g><g transform="translate(-6,-158) scale(1,1)"><g><path fill="none" stroke="none"/><text fill="#000000" font-family="Arial" font-size="13px" font-style="normal" font-weight="normal" stroke="none" text-decoration="none" x="21" y="494.5">-generateMonster(): void</text></g></g><g transform="translate(-6,-158) scale(1,1)"><g><path fill="none" stroke="none"/><text fill="#000000" font-family="Arial" font-size="13px" font-style="normal" font-weight="normal" stroke="none" text-decoration="none" x="21" y="509.5">+removeMonster(deadMonster: Monster): void</text></g></g><g transform="translate(-6,-158) scale(1,1)"><g><path fill="none" stroke="none"/><text fill="#000000" font-family="Arial" font-size="13px" font-style="normal" font-weight="normal" stroke="none" text-decoration="none" x="21" y="524.5">+getNumberOfMonster(): int</text></g></g><g transform="translate(-6,-158) scale(1,1)"><g><path fill="none" stroke="none"/><text fill="#000000" font-family="Arial" font-size="13px" font-style="normal" font-weight="normal" stroke="none" text-decoration="none" x="21" y="539.5">+getSize(): int</text></g></g><g transform="translate(-6,-158) scale(1,1)"><g><path fill="none" stroke="none"/><text fill="#000000" font-family="Arial" font-size="13px" font-style="normal" font-weight="normal" stroke="none" text-decoration="none" x="21" y="554.5">+setHero(hero: Hero): void</text></g></g><g transform="translate(-6,-158) scale(1,1)"><g><path fill="none" stroke="none"/><text fill="#000000" font-family="Arial" font-size="13px" font-style="normal" font-weight="normal" stroke="none" text-decoration="none" x="21" y="569.5">+isNearMonster(): boolean</text></g></g><g transform="translate(-6,-158) scale(1,1)"><g><path fill="none" stroke="none"/><text fill="#000000" font-family="Arial" font-size="13px" font-style="normal" font-weight="normal" stroke="none" text-decoration="none" x="21" y="584.5">+getNearbyMonster(): Monster</text></g></g><g transform="translate(-6,-158) scale(1,1)"><g><path fill="none" stroke="none"/><text fill="#000000" font-family="Arial" font-size="13px" font-style="normal" font-weight="normal" stroke="none" text-decoration="none" x="21" y="599.5">+addMonster(monster: Monster): void</text></g></g><g transform="translate(-6,-158) scale(1,1)"><g><path fill="none" stroke="none"/><text fill="#000000" font-family="Arial" font-size="13px" font-style="normal" font-weight="normal" stroke="none" text-decoration="none" x="21" y="614.5">+moveCharacter(direction: char): void</text></g></g><g transform="translate(-6,-158) scale(1,1)"><g><path fill="none" stroke="none"/><text fill="#000000" font-family="Arial" font-size="13px" font-style="normal" font-weight="normal" stroke="none" text-decoration="none" x="21" y="629.5">+display(): void</text></g></g><g transform="translate(-6,-158) scale(1,1)"><rect fill="#C0C0C0" height="87" opacity="0.2" stroke="none" width="258.64697265625" x="967" y="279"/></g><g transform="translate(-6,-158) scale(1,1)"><rect fill="#ffffff" height="87" stroke="none" width="258.64697265625" x="960" y="272"/></g><g transform="translate(-6,-158) scale(1,1)"><path d="M 960 272 L 1218.64697265625 272 L 1218.64697265625 359 L 960 359 L 960 272 Z Z" fill="none" stroke="#000000" stroke-miterlimit="10"/></g><g transform="translate(-6,-158) scale(1,1)"><path d="M 960 312 L 1218.64697265625 312" fill="none" stroke="#000000" stroke-miterlimit="10"/></g><g transform="translate(-6,-158) scale(1,1)"><path d="M 960 322 L 1218.64697265625 322" fill="none" stroke="#000000" stroke-miterlimit="10"/></g><g transform="translate(-6,-158) scale(1,1)"><g><path fill="none" stroke="none"/><text fill="#000000" font-family="Arial" font-size="13px" font-style="italic" font-weight="bold" stroke="none" text-decoration="none" x="1064.0439453125" y="289.5">Monster</text></g></g><g transform="translate(-6,-158) scale(1,1)"><g><path fill="none" stroke="none"/><text fill="#000000" font-family="Arial" font-size="13px" font-style="normal" font-weight="normal" stroke="none" text-decoration="none" x="1057.5439453125" y="304.5">(from mob)</text></g></g><g transform="translate(-6,-158) scale(1,1)"><g><path fill="none" stroke="none"/><text fill="#000000" font-family="Arial" font-size="13px" font-style="normal" font-weight="normal" stroke="none" text-decoration="none" x="965" y="337.5">«constructor»+Monster(posX: int, posY: int)</text></g></g><g transform="translate(-6,-158) scale(1,1)"><g><path fill="none" stroke="none"/><text fill="#000000" font-family="Arial" font-size="13px" font-style="italic" font-weight="normal" stroke="none" text-decoration="none" x="965" y="352.5">+getName(): String</text></g></g><g transform="translate(-6,-158) scale(1,1)"><path d="M 738 415 L 738 282" fill="none" stroke="#000000" stroke-miterlimit="10"/></g><g transform="translate(-6,-158) scale(1,1)"><rect fill="#C0C0C0" height="115" opacity="0.2" stroke="none" width="265.166015625" x="871" y="791"/></g><g transform="translate(-6,-158) scale(1,1)"><rect fill="#ffffff" height="115" stroke="none" width="265.166015625" x="864" y="784"/></g><g transform="translate(-6,-158) scale(1,1)"><path d="M 864 784 L 1129.166015625 784 L 1129.166015625 899 L 864 899 L 864 784 Z Z" fill="none" stroke="#000000" stroke-miterlimit="10"/></g><g transform="translate(-6,-158) scale(1,1)"><path d="M 864 824 L 1129.166015625 824" fill="none" stroke="#000000" stroke-miterlimit="10"/></g><g transform="translate(-6,-158) scale(1,1)"><path d="M 864 847 L 1129.166015625 847" fill="none" stroke="#000000" stroke-miterlimit="10"/></g><g transform="translate(-6,-158) scale(1,1)"><g><path fill="none" stroke="none"/><text fill="#000000" font-family="Arial" font-size="13px" font-style="normal" font-weight="bold" stroke="none" text-decoration="none" x="968.053466796875" y="801.5">Dragonet</text></g></g><g transform="translate(-6,-158) scale(1,1)"><g><path fill="none" stroke="none"/><text fill="#000000" font-family="Arial" font-size="13px" font-style="normal" font-weight="normal" stroke="none" text-decoration="none" x="964.803466796875" y="816.5">(from mob)</text></g></g><g transform="translate(-6,-158) scale(1,1)"><g><path fill="none" stroke="none"/><text fill="#000000" font-family="Arial" font-size="13px" font-style="normal" font-weight="normal" stroke="none" text-decoration="none" x="869" y="839.5">-END_BONUS: int = 1 {readOnly}</text><path d="M 869 841.5 L 1062.27978515625 841.5" fill="none" stroke="#000000" stroke-miterlimit="10"/></g></g><g transform="translate(-6,-158) scale(1,1)"><g><path fill="none" stroke="none"/><text fill="#000000" font-family="Arial" font-size="13px" font-style="normal" font-weight="normal" stroke="none" text-decoration="none" x="869" y="862.5">«constructor»+Dragonet(posX: int, posY: int)</text></g></g><g transform="translate(-6,-158) scale(1,1)"><g><path fill="none" stroke="none"/><text fill="#000000" font-family="Arial" font-size="13px" font-style="normal" font-weight="normal" stroke="none" text-decoration="none" x="869" y="877.5">+getName(): String</text></g></g><g transform="translate(-6,-158) scale(1,1)"><g><path fill="none" stroke="none"/><text fill="#000000" font-family="Arial" font-size="13px" font-style="normal" font-weight="normal" stroke="none" text-decoration="none" x="869" y="892.5">+toString(): String</text></g></g><g transform="translate(-6,-158) scale(1,1)"><path d="M 1024 784 L 1024 704 L 1089 704 L 1089 359" fill="none" stroke="#000000" stroke-miterlimit="10"/></g><g transform="translate(-6,-158) scale(1,1)"><path d="M 1097.419035512032 379.3253497152483 L 1089 359 L 1080.580964487968 379.3253497152483" fill="#FFFFFF" stroke="none"/></g><g transform="translate(-6,-158) scale(1,1)"><path d="M 1097.419035512032 379.3253497152483 L 1089 359 L 1080.580964487968 379.3253497152483 L 1097.419035512032 379.3253497152483" fill="none" stroke="#000000" stroke-miterlimit="10"/></g><g transform="translate(-6,-158) scale(1,1)"><rect fill="#C0C0C0" height="130" opacity="0.2" stroke="none" width="232.6279296875" x="1159" y="791"/></g><g transform="translate(-6,-158) scale(1,1)"><rect fill="#ffffff" height="130" stroke="none" width="232.6279296875" x="1152" y="784"/></g><g transform="translate(-6,-158) scale(1,1)"><path d="M 1152 784 L 1384.6279296875 784 L 1384.6279296875 914 L 1152 914 L 1152 784 Z Z" fill="none" stroke="#000000" stroke-miterlimit="10"/></g><g transform="translate(-6,-158) scale(1,1)"><path d="M 1152 824 L 1384.6279296875 824" fill="none" stroke="#000000" stroke-miterlimit="10"/></g><g transform="translate(-6,-158) scale(1,1)"><path d="M 1152 847 L 1384.6279296875 847" fill="none" stroke="#000000" stroke-miterlimit="10"/></g><g transform="translate(-6,-158) scale(1,1)"><g><path fill="none" stroke="none"/><text fill="#000000" font-family="Arial" font-size="13px" font-style="normal" font-weight="bold" stroke="none" text-decoration="none" x="1257.113525390625" y="801.5">Orc</text></g></g><g transform="translate(-6,-158) scale(1,1)"><g><path fill="none" stroke="none"/><text fill="#000000" font-family="Arial" font-size="13px" font-style="normal" font-weight="normal" stroke="none" text-decoration="none" x="1236.534423828125" y="816.5">(from mob)</text></g></g><g transform="translate(-6,-158) scale(1,1)"><g><path fill="none" stroke="none"/><text fill="#000000" font-family="Arial" font-size="13px" font-style="normal" font-weight="normal" stroke="none" text-decoration="none" x="1157" y="839.5">-FOR_BONUS: int = 1 {readOnly}</text><path d="M 1157 841.5 L 1350.2734375 841.5" fill="none" stroke="#000000" stroke-miterlimit="10"/></g></g><g transform="translate(-6,-158) scale(1,1)"><g><path fill="none" stroke="none"/><text fill="#000000" font-family="Arial" font-size="13px" font-style="normal" font-weight="normal" stroke="none" text-decoration="none" x="1157" y="862.5">«constructor»+Orc(posX: int, posY: int)</text></g></g><g transform="translate(-6,-158) scale(1,1)"><g><path fill="none" stroke="none"/><text fill="#000000" font-family="Arial" font-size="13px" font-style="normal" font-weight="normal" stroke="none" text-decoration="none" x="1157" y="877.5">+getDamage(): int</text></g></g><g transform="translate(-6,-158) scale(1,1)"><g><path fill="none" stroke="none"/><text fill="#000000" font-family="Arial" font-size="13px" font-style="normal" font-weight="normal" stroke="none" text-decoration="none" x="1157" y="892.5">+getName(): String</text></g></g><g transform="translate(-6,-158) scale(1,1)"><g><path fill="none" stroke="none"/><text fill="#000000" font-family="Arial" font-size="13px" font-style="normal" font-weight="normal" stroke="none" text-decoration="none" x="1157" y="907.5">+toString(): String</text></g></g><g transform="translate(-6,-158) scale(1,1)"><path d="M 1266 783 L 1264 704 L 1088 704 L 1089 360" fill="none" stroke="#000000" stroke-miterlimit="10"/></g><g transform="translate(-6,-158) scale(1,1)"><path d="M 1097.359914870379 380.3497376730025 L 1089 360 L 1080.52191499104 380.30078999893465" fill="#FFFFFF" stroke="none"/></g><g transform="translate(-6,-158) scale(1,1)"><path d="M 1097.359914870379 380.3497376730025 L 1089 360 L 1080.52191499104 380.30078999893465 L 1097.359914870379 380.3497376730025" fill="none" stroke="#000000" stroke-miterlimit="10"/></g><g transform="translate(-6,-158) scale(1,1)"><rect fill="#C0C0C0" height="102" opacity="0.2" stroke="none" width="237.4521484375" x="583" y="799"/></g><g transform="translate(-6,-158) scale(1,1)"><rect fill="#ffffff" height="102" stroke="none" width="237.4521484375" x="576" y="792"/></g><g transform="translate(-6,-158) scale(1,1)"><path d="M 576 792 L 813.4521484375 792 L 813.4521484375 894 L 576 894 L 576 792 Z Z" fill="none" stroke="#000000" stroke-miterlimit="10"/></g><g transform="translate(-6,-158) scale(1,1)"><path d="M 576 832 L 813.4521484375 832" fill="none" stroke="#000000" stroke-miterlimit="10"/></g><g transform="translate(-6,-158) scale(1,1)"><path d="M 576 842 L 813.4521484375 842" fill="none" stroke="#000000" stroke-miterlimit="10"/></g><g transform="translate(-6,-158) scale(1,1)"><g><path fill="none" stroke="none"/><text fill="#000000" font-family="Arial" font-size="13px" font-style="normal" font-weight="bold" stroke="none" text-decoration="none" x="680.767578125" y="809.5">Wolf</text></g></g><g transform="translate(-6,-158) scale(1,1)"><g><path fill="none" stroke="none"/><text fill="#000000" font-family="Arial" font-size="13px" font-style="normal" font-weight="normal" stroke="none" text-decoration="none" x="662.946533203125" y="824.5">(from mob)</text></g></g><g transform="translate(-6,-158) scale(1,1)"><g><path fill="none" stroke="none"/><text fill="#000000" font-family="Arial" font-size="13px" font-style="normal" font-weight="normal" stroke="none" text-decoration="none" x="581" y="857.5">«constructor»+Wolf(posX: int, posY: int)</text></g></g><g transform="translate(-6,-158) scale(1,1)"><g><path fill="none" stroke="none"/><text fill="#000000" font-family="Arial" font-size="13px" font-style="normal" font-weight="normal" stroke="none" text-decoration="none" x="581" y="872.5">+getName(): String</text></g></g><g transform="translate(-6,-158) scale(1,1)"><g><path fill="none" stroke="none"/><text fill="#000000" font-family="Arial" font-size="13px" font-style="normal" font-weight="normal" stroke="none" text-decoration="none" x="581" y="887.5">+toString(): String</text></g></g><g transform="translate(-6,-158) scale(1,1)"><path d="M 688 792 L 688 704 L 1089 704 L 1089 359" fill="none" stroke="#000000" stroke-miterlimit="10"/></g><g transform="translate(-6,-158) scale(1,1)"><path d="M 1097.419035512032 379.3253497152483 L 1089 359 L 1080.580964487968 379.3253497152483" fill="#FFFFFF" stroke="none"/></g><g transform="translate(-6,-158) scale(1,1)"><path d="M 1097.419035512032 379.3253497152483 L 1089 359 L 1080.580964487968 379.3253497152483 L 1097.419035512032 379.3253497152483" fill="none" stroke="#000000" stroke-miterlimit="10"/></g><g transform="translate(-6,-158) scale(1,1)"><path d="M 737 504 L 736 568 L 480 568 L 480 840 L 575 841" fill="none" stroke="#000000" stroke-dasharray="3" stroke-miterlimit="10"/></g><g transform="translate(-6,-158) scale(1,1)"><path d="M 564.7935798661309 845.102314962427 L 575 841 L 564.8821963832071 836.6837458401975" fill="none" stroke="#000000" stroke-miterlimit="10"/></g><g transform="translate(-6,-158) scale(1,1)"><g><path fill="none" stroke="none"/><text fill="#000000" font-family="Arial" font-size="13px" font-style="normal" font-weight="normal" stroke="none" text-decoration="none" x="550.5" y="833.5">+1</text></g></g><g transform="translate(-6,-158) scale(1,1)"><path d="M 737 504 L 736 568 L 992 568 L 995 783" fill="none" stroke="#000000" stroke-dasharray="3" stroke-miterlimit="10"/></g><g transform="translate(-6,-158) scale(1,1)"><path d="M 990.649101017577 772.8970460733135 L 995 783 L 999.0673170568464 772.7795825936957" fill="none" stroke="#000000" stroke-miterlimit="10"/></g><g transform="translate(-6,-158) scale(1,1)"><g><path fill="none" stroke="none"/><text fill="#000000" font-family="Arial" font-size="13px" font-style="normal" font-weight="normal" stroke="none" text-decoration="none" x="966.5" y="769.5">+1</text></g></g><g transform="translate(-6,-158) scale(1,1)"><path d="M 737 503 L 737 568 L 1312 568 L 1312 784" fill="none" stroke="#000000" stroke-dasharray="3" stroke-miterlimit="10"/></g><g transform="translate(-6,-158) scale(1,1)"><path d="M 1307.7904822439841 773.8373251423759 L 1312 784 L 1316.2095177560159 773.8373251423759" fill="none" stroke="#000000" stroke-miterlimit="10"/></g><g transform="translate(-6,-158) scale(1,1)"><g><path fill="none" stroke="none"/><text fill="#000000" font-family="Arial" font-size="13px" font-style="normal" font-weight="normal" stroke="none" text-decoration="none" x="787.5" y="561.5">+creates</text></g></g><g transform="translate(-6,-158) scale(1,1)"><path d="M 1088 272 L 1088 168 L 152 168 L 152 296" fill="none" stroke="#000000" stroke-miterlimit="10"/></g><g transform="translate(-6,-158) scale(1,1)"><path d="M 147.790482243984 285.83732514237585 L 152 296 L 156.209517756016 285.83732514237585 L 152 274" fill="#000000" stroke="none"/></g><g transform="translate(-6,-158) scale(1,1)"><path d="M 147.790482243984 285.83732514237585 L 152 296 L 156.209517756016 285.83732514237585 L 152 274 L 147.790482243984 285.83732514237585" fill="none" stroke="#000000" stroke-miterlimit="10"/></g><g transform="translate(-6,-158) scale(1,1)"><g><path fill="none" stroke="none"/><text fill="#000000" font-family="Arial" font-size="13px" font-style="normal" font-weight="normal" stroke="none" text-decoration="none" x="589.5" y="187.5">+places in</text></g></g><g transform="translate(-6,-158) scale(1,1)"><g><path fill="none" stroke="none"/><text fill="#000000" font-family="Arial" font-size="13px" font-style="normal" font-weight="normal" stroke="none" text-decoration="none" x="1095.5" y="266.5">+1..n</text></g></g><g transform="translate(-6,-158) scale(1,1)"><path d="M 294 464 L 610 461" fill="none" stroke="#000000" stroke-miterlimit="10"/></g><g transform="translate(-6,-158) scale(1,1)"><path d="M 599.8777450666026 465.3058048101735 L 610 461 L 599.7978211159564 456.8871486754351" fill="none" stroke="#000000" stroke-miterlimit="10"/></g><g transform="translate(-6,-158) scale(1,1)"><g><path fill="none" stroke="none"/><text fill="#000000" font-family="Arial" font-size="13px" font-style="normal" font-weight="normal" stroke="none" text-decoration="none" x="433.5" y="451">+uses</text></g></g><g transform="translate(-6,-158) scale(1,1)"><g><path fill="none" stroke="none"/><text fill="#000000" font-family="Arial" font-size="13px" font-style="normal" font-weight="normal" stroke="none" text-decoration="none" x="575.5" y="450.5">+1</text></g></g></g></svg>