<?xml version="1.0" encoding="UTF-8" standalone="no"?><svg xmlns="http://www.w3.org/2000/svg" xmlns:xlink="http://www.w3.org/1999/xlink" height="627" version="1.1" width="1056.693359375"><defs/><g><g transform="translate(-30,-142) scale(1,1)"><rect fill="#C0C0C0" height="310" opacity="0.2" stroke="none" width="179.142578125" x="423" y="159"/></g><g transform="translate(-30,-142) scale(1,1)"><rect fill="#ffffff" height="310" stroke="none" width="179.142578125" x="416" y="152"/></g><g transform="translate(-30,-142) scale(1,1)"><path d="M 416 152 L 595.142578125 152 L 595.142578125 462 L 416 462 L 416 152 Z Z" fill="none" stroke="#000000" stroke-miterlimit="10"/></g><g transform="translate(-30,-142) scale(1,1)"><path d="M 416 192 L 595.142578125 192" fill="none" stroke="#000000" stroke-miterlimit="10"/></g><g transform="translate(-30,-142) scale(1,1)"><path d="M 416 320 L 595.142578125 320" fill="none" stroke="#000000" stroke-miterlimit="10"/></g><g transform="translate(-30,-142) scale(1,1)"><g><path fill="none" stroke="none"/><text fill="#000000" font-family="Arial" font-size="13px" font-style="normal" font-weight="bold" stroke="none" text-decoration="none" x="466.55224609375" y="169.5">GameMaster</text></g></g><g transform="translate(-30,-142) scale(1,1)"><g><path fill="none" stroke="none"/><text fill="#000000" font-family="Arial" font-size="13px" font-style="normal" font-weight="normal" stroke="none" text-decoration="none" x="479.5712890625" y="184.5">(from ex)</text></g></g><g transform="translate(-30,-142) scale(1,1)"><g><path fill="none" stroke="none"/><text fill="#000000" font-family="Arial" font-size="13px" font-style="normal" font-weight="normal" stroke="none" text-decoration="none" x="421" y="207.5">-hero: Hero</text></g></g><g transform="translate(-30,-142) scale(1,1)"><g><path fill="none" stroke="none"/><text fill="#000000" font-family="Arial" font-size="13px" font-style="normal" font-weight="normal" stroke="none" text-decoration="none" x="421" y="222.5">-enemy: Monster</text></g></g><g transform="translate(-30,-142) scale(1,1)"><g><path fill="none" stroke="none"/><text fill="#000000" font-family="Arial" font-size="13px" font-style="normal" font-weight="normal" stroke="none" text-decoration="none" x="421" y="237.5">-enemyCount: int = 0</text></g></g><g transform="translate(-30,-142) scale(1,1)"><g><path fill="none" stroke="none"/><text fill="#000000" font-family="Arial" font-size="13px" font-style="normal" font-weight="normal" stroke="none" text-decoration="none" x="421" y="252.5">-r: Random</text></g></g><g transform="translate(-30,-142) scale(1,1)"><g><path fill="none" stroke="none"/><text fill="#000000" font-family="Arial" font-size="13px" font-style="normal" font-weight="normal" stroke="none" text-decoration="none" x="421" y="267.5">-map: Map</text></g></g><g transform="translate(-30,-142) scale(1,1)"><g><path fill="none" stroke="none"/><text fill="#000000" font-family="Arial" font-size="13px" font-style="normal" font-weight="normal" stroke="none" text-decoration="none" x="421" y="282.5">-command: Command</text></g></g><g transform="translate(-30,-142) scale(1,1)"><g><path fill="none" stroke="none"/><text fill="#000000" font-family="Arial" font-size="13px" font-style="normal" font-weight="normal" stroke="none" text-decoration="none" x="421" y="297.5">~myScanner: Scanner</text></g></g><g transform="translate(-30,-142) scale(1,1)"><g><path fill="none" stroke="none"/><text fill="#000000" font-family="Arial" font-size="13px" font-style="normal" font-weight="normal" stroke="none" text-decoration="none" x="421" y="312.5">-shop: Shop</text></g></g><g transform="translate(-30,-142) scale(1,1)"><g><path fill="none" stroke="none"/><text fill="#000000" font-family="Arial" font-size="13px" font-style="normal" font-weight="normal" stroke="none" text-decoration="none" x="421" y="335.5">«constructor»+GameMaster()</text></g></g><g transform="translate(-30,-142) scale(1,1)"><g><path fill="none" stroke="none"/><text fill="#000000" font-family="Arial" font-size="13px" font-style="normal" font-weight="normal" stroke="none" text-decoration="none" x="421" y="350.5">-generateHero(): void</text></g></g><g transform="translate(-30,-142) scale(1,1)"><g><path fill="none" stroke="none"/><text fill="#000000" font-family="Arial" font-size="13px" font-style="normal" font-weight="normal" stroke="none" text-decoration="none" x="421" y="365.5">-gameLoop(): void</text></g></g><g transform="translate(-30,-142) scale(1,1)"><g><path fill="none" stroke="none"/><text fill="#000000" font-family="Arial" font-size="13px" font-style="normal" font-weight="normal" stroke="none" text-decoration="none" x="421" y="380.5">-mapExploration(): void</text></g></g><g transform="translate(-30,-142) scale(1,1)"><g><path fill="none" stroke="none"/><text fill="#000000" font-family="Arial" font-size="13px" font-style="normal" font-weight="normal" stroke="none" text-decoration="none" x="421" y="395.5">-fight(): void</text></g></g><g transform="translate(-30,-142) scale(1,1)"><g><path fill="none" stroke="none"/><text fill="#000000" font-family="Arial" font-size="13px" font-style="normal" font-weight="normal" stroke="none" text-decoration="none" x="421" y="410.5">-fightEnd(): void</text></g></g><g transform="translate(-30,-142) scale(1,1)"><g><path fill="none" stroke="none"/><text fill="#000000" font-family="Arial" font-size="13px" font-style="normal" font-weight="normal" stroke="none" text-decoration="none" x="421" y="425.5">-fightTurn(): void</text></g></g><g transform="translate(-30,-142) scale(1,1)"><g><path fill="none" stroke="none"/><text fill="#000000" font-family="Arial" font-size="13px" font-style="normal" font-weight="normal" stroke="none" text-decoration="none" x="421" y="440.5">+initGame(): void</text></g></g><g transform="translate(-30,-142) scale(1,1)"><g><path fill="none" stroke="none"/><text fill="#000000" font-family="Arial" font-size="13px" font-style="normal" font-weight="normal" stroke="none" text-decoration="none" x="421" y="455.5">-endGame(): void</text></g></g><g transform="translate(-30,-142) scale(1,1)"><rect fill="#C0C0C0" height="130" opacity="0.2" stroke="none" width="200.12158203125" x="423" y="623"/></g><g transform="translate(-30,-142) scale(1,1)"><rect fill="#ffffff" height="130" stroke="none" width="200.12158203125" x="416" y="616"/></g><g transform="translate(-30,-142) scale(1,1)"><path d="M 416 616 L 616.12158203125 616 L 616.12158203125 746 L 416 746 L 416 616 Z Z" fill="none" stroke="#000000" stroke-miterlimit="10"/></g><g transform="translate(-30,-142) scale(1,1)"><path d="M 416 656 L 616.12158203125 656" fill="none" stroke="#000000" stroke-miterlimit="10"/></g><g transform="translate(-30,-142) scale(1,1)"><path d="M 416 679 L 616.12158203125 679" fill="none" stroke="#000000" stroke-miterlimit="10"/></g><g transform="translate(-30,-142) scale(1,1)"><g><path fill="none" stroke="none"/><text fill="#000000" font-family="Arial" font-size="13px" font-style="normal" font-weight="bold" stroke="none" text-decoration="none" x="499.81396484375" y="633.5">Shop</text></g></g><g transform="translate(-30,-142) scale(1,1)"><g><path fill="none" stroke="none"/><text fill="#000000" font-family="Arial" font-size="13px" font-style="normal" font-weight="normal" stroke="none" text-decoration="none" x="482.830810546875" y="648.5">(from shop)</text></g></g><g transform="translate(-30,-142) scale(1,1)"><g><path fill="none" stroke="none"/><text fill="#000000" font-family="Arial" font-size="13px" font-style="normal" font-weight="normal" stroke="none" text-decoration="none" x="421" y="671.5">-client: Hero</text></g></g><g transform="translate(-30,-142) scale(1,1)"><g><path fill="none" stroke="none"/><text fill="#000000" font-family="Arial" font-size="13px" font-style="normal" font-weight="normal" stroke="none" text-decoration="none" x="421" y="694.5">«constructor»+Shop(client: Hero)</text></g></g><g transform="translate(-30,-142) scale(1,1)"><g><path fill="none" stroke="none"/><text fill="#000000" font-family="Arial" font-size="13px" font-style="normal" font-weight="normal" stroke="none" text-decoration="none" x="421" y="709.5">+buyItem(i: int): Item</text></g></g><g transform="translate(-30,-142) scale(1,1)"><g><path fill="none" stroke="none"/><text fill="#000000" font-family="Arial" font-size="13px" font-style="normal" font-weight="normal" stroke="none" text-decoration="none" x="421" y="724.5">+listItems(): void</text></g></g><g transform="translate(-30,-142) scale(1,1)"><g><path fill="none" stroke="none"/><text fill="#000000" font-family="Arial" font-size="13px" font-style="normal" font-weight="normal" stroke="none" text-decoration="none" x="421" y="739.5">+shopInterface(): void</text></g></g><g transform="translate(-30,-142) scale(1,1)"><path d="M 510 462 L 510 616" fill="none" stroke="#000000" stroke-miterlimit="10"/></g><g transform="translate(-30,-142) scale(1,1)"><path d="M 505.790482243984 605.8373251423759 L 510 616 L 514.209517756016 605.8373251423759" fill="none" stroke="#000000" stroke-miterlimit="10"/></g><g transform="translate(-30,-142) scale(1,1)"><g><path fill="none" stroke="none"/><text fill="#000000" font-family="Arial" font-size="13px" font-style="normal" font-weight="normal" stroke="none" text-decoration="none" x="517.5" y="542.5">+invoke</text></g></g><g transform="translate(-30,-142) scale(1,1)"><g><path fill="none" stroke="none"/><text fill="#000000" font-family="Arial" font-size="13px" font-style="normal" font-weight="normal" stroke="none" text-decoration="none" x="517.5" y="491.5">+1</text></g></g><g transform="translate(-30,-142) scale(1,1)"><g><path fill="none" stroke="none"/><text fill="#000000" font-family="Arial" font-size="13px" font-style="normal" font-weight="normal" stroke="none" text-decoration="none" x="517.5" y="594.5">+1</text></g></g><g transform="translate(-30,-142) scale(1,1)"><rect fill="#C0C0C0" height="340" opacity="0.2" stroke="none" width="276.693359375" x="807" y="167"/></g><g transform="translate(-30,-142) scale(1,1)"><rect fill="#ffffff" height="340" stroke="none" width="276.693359375" x="800" y="160"/></g><g transform="translate(-30,-142) scale(1,1)"><path d="M 800 160 L 1076.693359375 160 L 1076.693359375 500 L 800 500 L 800 160 Z Z" fill="none" stroke="#000000" stroke-miterlimit="10"/></g><g transform="translate(-30,-142) scale(1,1)"><path d="M 800 200 L 1076.693359375 200" fill="none" stroke="#000000" stroke-miterlimit="10"/></g><g transform="translate(-30,-142) scale(1,1)"><path d="M 800 298 L 1076.693359375 298" fill="none" stroke="#000000" stroke-miterlimit="10"/></g><g transform="translate(-30,-142) scale(1,1)"><g><path fill="none" stroke="none"/><text fill="#000000" font-family="Arial" font-size="13px" font-style="normal" font-weight="bold" stroke="none" text-decoration="none" x="925.3466796875" y="177.5">Map</text></g></g><g transform="translate(-30,-142) scale(1,1)"><g><path fill="none" stroke="none"/><text fill="#000000" font-family="Arial" font-size="13px" font-style="normal" font-weight="normal" stroke="none" text-decoration="none" x="906.567138671875" y="192.5">(from map)</text></g></g><g transform="translate(-30,-142) scale(1,1)"><g><path fill="none" stroke="none"/><text fill="#000000" font-family="Arial" font-size="13px" font-style="normal" font-weight="normal" stroke="none" text-decoration="none" x="805" y="215.5">-SIZE: int {readOnly}</text></g></g><g transform="translate(-30,-142) scale(1,1)"><g><path fill="none" stroke="none"/><text fill="#000000" font-family="Arial" font-size="13px" font-style="normal" font-weight="normal" stroke="none" text-decoration="none" x="805" y="230.5">-N_MONSTERS: int {readOnly}</text></g></g><g transform="translate(-30,-142) scale(1,1)"><g><path fill="none" stroke="none"/><text fill="#000000" font-family="Arial" font-size="13px" font-style="normal" font-weight="normal" stroke="none" text-decoration="none" x="805" y="245.5">-monsters: Monster[*] {collection="ArrayList"}</text></g></g><g transform="translate(-30,-142) scale(1,1)"><g><path fill="none" stroke="none"/><text fill="#000000" font-family="Arial" font-size="13px" font-style="normal" font-weight="normal" stroke="none" text-decoration="none" x="805" y="260.5">-hero: Hero</text></g></g><g transform="translate(-30,-142) scale(1,1)"><g><path fill="none" stroke="none"/><text fill="#000000" font-family="Arial" font-size="13px" font-style="normal" font-weight="normal" stroke="none" text-decoration="none" x="805" y="275.5">-nearbyEnemy: Monster = null</text></g></g><g transform="translate(-30,-142) scale(1,1)"><g><path fill="none" stroke="none"/><text fill="#000000" font-family="Arial" font-size="13px" font-style="normal" font-weight="normal" stroke="none" text-decoration="none" x="805" y="290.5">-monsterGenerator: MonstersCreator</text></g></g><g transform="translate(-30,-142) scale(1,1)"><g><path fill="none" stroke="none"/><text fill="#000000" font-family="Arial" font-size="13px" font-style="normal" font-weight="normal" stroke="none" text-decoration="none" x="805" y="313.5">«constructor»+Map(size: int)</text></g></g><g transform="translate(-30,-142) scale(1,1)"><g><path fill="none" stroke="none"/><text fill="#000000" font-family="Arial" font-size="13px" font-style="normal" font-weight="normal" stroke="none" text-decoration="none" x="805" y="328.5">-generatePatch(type: SQUARE_TYPE): void</text></g></g><g transform="translate(-30,-142) scale(1,1)"><g><path fill="none" stroke="none"/><text fill="#000000" font-family="Arial" font-size="13px" font-style="normal" font-weight="normal" stroke="none" text-decoration="none" x="805" y="343.5">-createMap(): void</text></g></g><g transform="translate(-30,-142) scale(1,1)"><g><path fill="none" stroke="none"/><text fill="#000000" font-family="Arial" font-size="13px" font-style="normal" font-weight="normal" stroke="none" text-decoration="none" x="805" y="358.5">-generateMonster(): void</text></g></g><g transform="translate(-30,-142) scale(1,1)"><g><path fill="none" stroke="none"/><text fill="#000000" font-family="Arial" font-size="13px" font-style="normal" font-weight="normal" stroke="none" text-decoration="none" x="805" y="373.5">+removeMonster(deadMonster: Monster): void</text></g></g><g transform="translate(-30,-142) scale(1,1)"><g><path fill="none" stroke="none"/><text fill="#000000" font-family="Arial" font-size="13px" font-style="normal" font-weight="normal" stroke="none" text-decoration="none" x="805" y="388.5">+getNumberOfMonster(): int</text></g></g><g transform="translate(-30,-142) scale(1,1)"><g><path fill="none" stroke="none"/><text fill="#000000" font-family="Arial" font-size="13px" font-style="normal" font-weight="normal" stroke="none" text-decoration="none" x="805" y="403.5">+getSize(): int</text></g></g><g transform="translate(-30,-142) scale(1,1)"><g><path fill="none" stroke="none"/><text fill="#000000" font-family="Arial" font-size="13px" font-style="normal" font-weight="normal" stroke="none" text-decoration="none" x="805" y="418.5">+setHero(hero: Hero): void</text></g></g><g transform="translate(-30,-142) scale(1,1)"><g><path fill="none" stroke="none"/><text fill="#000000" font-family="Arial" font-size="13px" font-style="normal" font-weight="normal" stroke="none" text-decoration="none" x="805" y="433.5">+isNearMonster(): boolean</text></g></g><g transform="translate(-30,-142) scale(1,1)"><g><path fill="none" stroke="none"/><text fill="#000000" font-family="Arial" font-size="13px" font-style="normal" font-weight="normal" stroke="none" text-decoration="none" x="805" y="448.5">+getNearbyMonster(): Monster</text></g></g><g transform="translate(-30,-142) scale(1,1)"><g><path fill="none" stroke="none"/><text fill="#000000" font-family="Arial" font-size="13px" font-style="normal" font-weight="normal" stroke="none" text-decoration="none" x="805" y="463.5">+addMonster(monster: Monster): void</text></g></g><g transform="translate(-30,-142) scale(1,1)"><g><path fill="none" stroke="none"/><text fill="#000000" font-family="Arial" font-size="13px" font-style="normal" font-weight="normal" stroke="none" text-decoration="none" x="805" y="478.5">+moveCharacter(direction: char): void</text></g></g><g transform="translate(-30,-142) scale(1,1)"><g><path fill="none" stroke="none"/><text fill="#000000" font-family="Arial" font-size="13px" font-style="normal" font-weight="normal" stroke="none" text-decoration="none" x="805" y="493.5">+display(): void</text></g></g><g transform="translate(-30,-142) scale(1,1)"><path d="M 595 323 L 800 323" fill="none" stroke="#000000" stroke-miterlimit="10"/></g><g transform="translate(-30,-142) scale(1,1)"><path d="M 789.8373251423759 327.209517756016 L 800 323 L 789.8373251423758 318.790482243984" fill="none" stroke="#000000" stroke-miterlimit="10"/></g><g transform="translate(-30,-142) scale(1,1)"><g><path fill="none" stroke="none"/><text fill="#000000" font-family="Arial" font-size="13px" font-style="normal" font-weight="normal" stroke="none" text-decoration="none" x="679.5" y="312">+uses</text></g></g><g transform="translate(-30,-142) scale(1,1)"><g><path fill="none" stroke="none"/><text fill="#000000" font-family="Arial" font-size="13px" font-style="normal" font-weight="normal" stroke="none" text-decoration="none" x="612.5" y="312.5">+1</text></g></g><g transform="translate(-30,-142) scale(1,1)"><g><path fill="none" stroke="none"/><text fill="#000000" font-family="Arial" font-size="13px" font-style="normal" font-weight="normal" stroke="none" text-decoration="none" x="766.5" y="312.5">+1</text></g></g><g transform="translate(-30,-142) scale(1,1)"><rect fill="#C0C0C0" height="310" opacity="0.2" stroke="none" width="239.8642578125" x="47" y="231"/></g><g transform="translate(-30,-142) scale(1,1)"><rect fill="#ffffff" height="310" stroke="none" width="239.8642578125" x="40" y="224"/></g><g transform="translate(-30,-142) scale(1,1)"><path d="M 40 224 L 279.8642578125 224 L 279.8642578125 534 L 40 534 L 40 224 Z Z" fill="none" stroke="#000000" stroke-miterlimit="10"/></g><g transform="translate(-30,-142) scale(1,1)"><path d="M 40 264 L 279.8642578125 264" fill="none" stroke="#000000" stroke-miterlimit="10"/></g><g transform="translate(-30,-142) scale(1,1)"><path d="M 40 317 L 279.8642578125 317" fill="none" stroke="#000000" stroke-miterlimit="10"/></g><g transform="translate(-30,-142) scale(1,1)"><g><path fill="none" stroke="none"/><text fill="#000000" font-family="Arial" font-size="13px" font-style="italic" font-weight="bold" stroke="none" text-decoration="none" x="145.123046875" y="241.5">Hero</text></g></g><g transform="translate(-30,-142) scale(1,1)"><g><path fill="none" stroke="none"/><text fill="#000000" font-family="Arial" font-size="13px" font-style="normal" font-weight="normal" stroke="none" text-decoration="none" x="128.152587890625" y="256.5">(from mob)</text></g></g><g transform="translate(-30,-142) scale(1,1)"><g><path fill="none" stroke="none"/><text fill="#000000" font-family="Arial" font-size="13px" font-style="normal" font-weight="normal" stroke="none" text-decoration="none" x="45" y="279.5">-mp: int</text></g></g><g transform="translate(-30,-142) scale(1,1)"><g><path fill="none" stroke="none"/><text fill="#000000" font-family="Arial" font-size="13px" font-style="normal" font-weight="normal" stroke="none" text-decoration="none" x="45" y="294.5">-maxMagic: int</text></g></g><g transform="translate(-30,-142) scale(1,1)"><g><path fill="none" stroke="none"/><text fill="#000000" font-family="Arial" font-size="13px" font-style="normal" font-weight="normal" stroke="none" text-decoration="none" x="45" y="309.5">-items: Item[*] {collection="ArrayList"}</text></g></g><g transform="translate(-30,-142) scale(1,1)"><g><path fill="none" stroke="none"/><text fill="#000000" font-family="Arial" font-size="13px" font-style="normal" font-weight="normal" stroke="none" text-decoration="none" x="45" y="332.5">«constructor»+Hero(posX: int, posY: int)</text></g></g><g transform="translate(-30,-142) scale(1,1)"><g><path fill="none" stroke="none"/><text fill="#000000" font-family="Arial" font-size="13px" font-style="normal" font-weight="normal" stroke="none" text-decoration="none" x="45" y="347.5">+restoreHealth(): void</text></g></g><g transform="translate(-30,-142) scale(1,1)"><g><path fill="none" stroke="none"/><text fill="#000000" font-family="Arial" font-size="13px" font-style="normal" font-weight="normal" stroke="none" text-decoration="none" x="45" y="362.5">+addItem(item: Item): void</text></g></g><g transform="translate(-30,-142) scale(1,1)"><g><path fill="none" stroke="none"/><text fill="#000000" font-family="Arial" font-size="13px" font-style="normal" font-weight="normal" stroke="none" text-decoration="none" x="45" y="377.5">+UseItem(): void</text></g></g><g transform="translate(-30,-142) scale(1,1)"><g><path fill="none" stroke="none"/><text fill="#000000" font-family="Arial" font-size="13px" font-style="normal" font-weight="normal" stroke="none" text-decoration="none" x="45" y="392.5">+throwSpell(enemy: Character): void</text></g></g><g transform="translate(-30,-142) scale(1,1)"><g><path fill="none" stroke="none"/><text fill="#000000" font-family="Arial" font-size="13px" font-style="normal" font-weight="normal" stroke="none" text-decoration="none" x="45" y="407.5">+hit(enemy: Character): void</text></g></g><g transform="translate(-30,-142) scale(1,1)"><g><path fill="none" stroke="none"/><text fill="#000000" font-family="Arial" font-size="13px" font-style="normal" font-weight="normal" stroke="none" text-decoration="none" x="45" y="422.5">+addHp(hp: int): void</text></g></g><g transform="translate(-30,-142) scale(1,1)"><g><path fill="none" stroke="none"/><text fill="#000000" font-family="Arial" font-size="13px" font-style="normal" font-weight="normal" stroke="none" text-decoration="none" x="45" y="437.5">+addMp(mp: int): void</text></g></g><g transform="translate(-30,-142) scale(1,1)"><g><path fill="none" stroke="none"/><text fill="#000000" font-family="Arial" font-size="13px" font-style="normal" font-weight="normal" stroke="none" text-decoration="none" x="45" y="452.5">-addGold(gold: int): void</text></g></g><g transform="translate(-30,-142) scale(1,1)"><g><path fill="none" stroke="none"/><text fill="#000000" font-family="Arial" font-size="13px" font-style="normal" font-weight="normal" stroke="none" text-decoration="none" x="45" y="467.5">-addLeather(leather: int): void</text></g></g><g transform="translate(-30,-142) scale(1,1)"><g><path fill="none" stroke="none"/><text fill="#000000" font-family="Arial" font-size="13px" font-style="normal" font-weight="normal" stroke="none" text-decoration="none" x="45" y="482.5">+getMp(): int</text></g></g><g transform="translate(-30,-142) scale(1,1)"><g><path fill="none" stroke="none"/><text fill="#000000" font-family="Arial" font-size="13px" font-style="normal" font-weight="normal" stroke="none" text-decoration="none" x="45" y="497.5">+getMaxMagic(): int</text></g></g><g transform="translate(-30,-142) scale(1,1)"><g><path fill="none" stroke="none"/><text fill="#000000" font-family="Arial" font-size="13px" font-style="normal" font-weight="normal" stroke="none" text-decoration="none" x="45" y="512.5">+canThrowSpell(): boolean</text></g></g><g transform="translate(-30,-142) scale(1,1)"><g><path fill="none" stroke="none"/><text fill="#000000" font-family="Arial" font-size="13px" font-style="normal" font-weight="normal" stroke="none" text-decoration="none" x="45" y="527.5">+toString(): String</text></g></g><g transform="translate(-30,-142) scale(1,1)"><path d="M 415 681 L 160 680 L 160 535" fill="none" stroke="#000000" stroke-miterlimit="10"/></g><g transform="translate(-30,-142) scale(1,1)"><path d="M 164.209517756016 545.1626748576241 L 160 535 L 155.790482243984 545.1626748576241" fill="none" stroke="#000000" stroke-miterlimit="10"/></g><g transform="translate(-30,-142) scale(1,1)"><g><path fill="none" stroke="none"/><text fill="#000000" font-family="Arial" font-size="13px" font-style="normal" font-weight="normal" stroke="none" text-decoration="none" x="380.5" y="699.5">+1</text></g></g><g transform="translate(-30,-142) scale(1,1)"><g><path fill="none" stroke="none"/><text fill="#000000" font-family="Arial" font-size="13px" font-style="normal" font-weight="normal" stroke="none" text-decoration="none" x="137.5" y="564.5">+1</text></g></g><g transform="translate(-30,-142) scale(1,1)"><path d="M 280 354 L 416 354" fill="none" stroke="#000000" stroke-miterlimit="10"/></g><g transform="translate(-30,-142) scale(1,1)"><g><path fill="none" stroke="none"/><text fill="#000000" font-family="Arial" font-size="13px" font-style="normal" font-weight="normal" stroke="none" text-decoration="none" x="297.5" y="343.5">+1</text></g></g><g transform="translate(-30,-142) scale(1,1)"><g><path fill="none" stroke="none"/><text fill="#000000" font-family="Arial" font-size="13px" font-style="normal" font-weight="normal" stroke="none" text-decoration="none" x="382.5" y="343.5">+1</text></g></g><g transform="translate(-30,-142) scale(1,1)"><rect fill="#C0C0C0" height="87" opacity="0.2" stroke="none" width="258.64697265625" x="815" y="679"/></g><g transform="translate(-30,-142) scale(1,1)"><rect fill="#ffffff" height="87" stroke="none" width="258.64697265625" x="808" y="672"/></g><g transform="translate(-30,-142) scale(1,1)"><path d="M 808 672 L 1066.64697265625 672 L 1066.64697265625 759 L 808 759 L 808 672 Z Z" fill="none" stroke="#000000" stroke-miterlimit="10"/></g><g transform="translate(-30,-142) scale(1,1)"><path d="M 808 712 L 1066.64697265625 712" fill="none" stroke="#000000" stroke-miterlimit="10"/></g><g transform="translate(-30,-142) scale(1,1)"><path d="M 808 722 L 1066.64697265625 722" fill="none" stroke="#000000" stroke-miterlimit="10"/></g><g transform="translate(-30,-142) scale(1,1)"><g><path fill="none" stroke="none"/><text fill="#000000" font-family="Arial" font-size="13px" font-style="italic" font-weight="bold" stroke="none" text-decoration="none" x="912.0439453125" y="689.5">Monster</text></g></g><g transform="translate(-30,-142) scale(1,1)"><g><path fill="none" stroke="none"/><text fill="#000000" font-family="Arial" font-size="13px" font-style="normal" font-weight="normal" stroke="none" text-decoration="none" x="905.5439453125" y="704.5">(from mob)</text></g></g><g transform="translate(-30,-142) scale(1,1)"><g><path fill="none" stroke="none"/><text fill="#000000" font-family="Arial" font-size="13px" font-style="normal" font-weight="normal" stroke="none" text-decoration="none" x="813" y="737.5">«constructor»+Monster(posX: int, posY: int)</text></g></g><g transform="translate(-30,-142) scale(1,1)"><g><path fill="none" stroke="none"/><text fill="#000000" font-family="Arial" font-size="13px" font-style="italic" font-weight="normal" stroke="none" text-decoration="none" x="813" y="752.5">+getName(): String</text></g></g><g transform="translate(-30,-142) scale(1,1)"><path d="M 937 671 L 938 501" fill="none" stroke="#000000" stroke-miterlimit="10"/></g><g transform="translate(-30,-142) scale(1,1)"><path d="M 942.1496655227769 511.18726047812055 L 938 501 L 933.7307756650189 511.1377375966043 L 937.8705904741939 522.9996193870401" fill="#FFFFFF" stroke="none"/></g><g transform="translate(-30,-142) scale(1,1)"><path d="M 942.1496655227769 511.18726047812055 L 938 501 L 933.7307756650189 511.1377375966043 L 937.8705904741939 522.9996193870401 L 942.1496655227769 511.18726047812055" fill="none" stroke="#000000" stroke-miterlimit="10"/></g><g transform="translate(-30,-142) scale(1,1)"><path d="M 937 671 L 938 501" fill="none" stroke="#000000" stroke-miterlimit="10"/></g><g transform="translate(-30,-142) scale(1,1)"><path d="M 942.1496655227769 511.18726047812055 L 938 501 L 933.7307756650189 511.1377375966043 L 937.8705904741939 522.9996193870401" fill="#000000" stroke="none"/></g><g transform="translate(-30,-142) scale(1,1)"><path d="M 942.1496655227769 511.18726047812055 L 938 501 L 933.7307756650189 511.1377375966043 L 937.8705904741939 522.9996193870401 L 942.1496655227769 511.18726047812055" fill="none" stroke="#000000" stroke-miterlimit="10"/></g><g transform="translate(-30,-142) scale(1,1)"><g><path fill="none" stroke="none"/><text fill="#000000" font-family="Arial" font-size="13px" font-style="normal" font-weight="normal" stroke="none" text-decoration="none" x="892.5" y="589.5">+places in</text></g></g><g transform="translate(-30,-142) scale(1,1)"><g><path fill="none" stroke="none"/><text fill="#000000" font-family="Arial" font-size="13px" font-style="normal" font-weight="normal" stroke="none" text-decoration="none" x="907.5" y="648.5">+1..n</text></g></g><g transform="translate(-30,-142) scale(1,1)"><path d="M 595 400 L 720 400 L 720 704 L 696 704 L 696 709 L 808 709" fill="none" stroke="#000000" stroke-miterlimit="10"/></g><g transform="translate(-30,-142) scale(1,1)"><path d="M 797.8373251423759 713.209517756016 L 808 709 L 797.8373251423758 704.790482243984" fill="none" stroke="#000000" stroke-miterlimit="10"/></g><g transform="translate(-30,-142) scale(1,1)"><g><path fill="none" stroke="none"/><text fill="#000000" font-family="Arial" font-size="13px" font-style="normal" font-weight="normal" stroke="none" text-decoration="none" x="692.5" y="723.5">+has</text></g></g></g></svg>