<?xml version="1.0" encoding="UTF-8" standalone="no"?><svg xmlns="http://www.w3.org/2000/svg" xmlns:xlink="http://www.w3.org/1999/xlink" height="743" version="1.1" width="451.2353515625"><defs/><g><g transform="translate(-406,-195) scale(1,1)"><rect fill="#C0C0C0" height="340" opacity="0.2" stroke="none" width="276.693359375" x="504" y="212"/></g><g transform="translate(-406,-195) scale(1,1)"><rect fill="#ffffff" height="340" stroke="none" width="276.693359375" x="497" y="205"/></g><g transform="translate(-406,-195) scale(1,1)"><path d="M 497 205 L 773.693359375 205 L 773.693359375 545 L 497 545 L 497 205 Z Z" fill="none" stroke="#000000" stroke-miterlimit="10"/></g><g transform="translate(-406,-195) scale(1,1)"><path d="M 497 245 L 773.693359375 245" fill="none" stroke="#000000" stroke-miterlimit="10"/></g><g transform="translate(-406,-195) scale(1,1)"><path d="M 497 343 L 773.693359375 343" fill="none" stroke="#000000" stroke-miterlimit="10"/></g><g transform="translate(-406,-195) scale(1,1)"><g><path fill="none" stroke="none"/><text fill="#000000" font-family="Arial" font-size="13px" font-style="normal" font-weight="bold" stroke="none" text-decoration="none" x="622.3466796875" y="222.5">Map</text></g></g><g transform="translate(-406,-195) scale(1,1)"><g><path fill="none" stroke="none"/><text fill="#000000" font-family="Arial" font-size="13px" font-style="normal" font-weight="normal" stroke="none" text-decoration="none" x="603.567138671875" y="237.5">(from map)</text></g></g><g transform="translate(-406,-195) scale(1,1)"><g><path fill="none" stroke="none"/><text fill="#000000" font-family="Arial" font-size="13px" font-style="normal" font-weight="normal" stroke="none" text-decoration="none" x="502" y="260.5">-SIZE: int {readOnly}</text></g></g><g transform="translate(-406,-195) scale(1,1)"><g><path fill="none" stroke="none"/><text fill="#000000" font-family="Arial" font-size="13px" font-style="normal" font-weight="normal" stroke="none" text-decoration="none" x="502" y="275.5">-N_MONSTERS: int {readOnly}</text></g></g><g transform="translate(-406,-195) scale(1,1)"><g><path fill="none" stroke="none"/><text fill="#000000" font-family="Arial" font-size="13px" font-style="normal" font-weight="normal" stroke="none" text-decoration="none" x="502" y="290.5">-monsters: Monster[*] {collection="ArrayList"}</text></g></g><g transform="translate(-406,-195) scale(1,1)"><g><path fill="none" stroke="none"/><text fill="#000000" font-family="Arial" font-size="13px" font-style="normal" font-weight="normal" stroke="none" text-decoration="none" x="502" y="305.5">-hero: Hero</text></g></g><g transform="translate(-406,-195) scale(1,1)"><g><path fill="none" stroke="none"/><text fill="#000000" font-family="Arial" font-size="13px" font-style="normal" font-weight="normal" stroke="none" text-decoration="none" x="502" y="320.5">-nearbyEnemy: Monster = null</text></g></g><g transform="translate(-406,-195) scale(1,1)"><g><path fill="none" stroke="none"/><text fill="#000000" font-family="Arial" font-size="13px" font-style="normal" font-weight="normal" stroke="none" text-decoration="none" x="502" y="335.5">-monsterGenerator: MonstersCreator</text></g></g><g transform="translate(-406,-195) scale(1,1)"><g><path fill="none" stroke="none"/><text fill="#000000" font-family="Arial" font-size="13px" font-style="normal" font-weight="normal" stroke="none" text-decoration="none" x="502" y="358.5">«constructor»+Map(size: int)</text></g></g><g transform="translate(-406,-195) scale(1,1)"><g><path fill="none" stroke="none"/><text fill="#000000" font-family="Arial" font-size="13px" font-style="normal" font-weight="normal" stroke="none" text-decoration="none" x="502" y="373.5">-generatePatch(type: SQUARE_TYPE): void</text></g></g><g transform="translate(-406,-195) scale(1,1)"><g><path fill="none" stroke="none"/><text fill="#000000" font-family="Arial" font-size="13px" font-style="normal" font-weight="normal" stroke="none" text-decoration="none" x="502" y="388.5">-createMap(): void</text></g></g><g transform="translate(-406,-195) scale(1,1)"><g><path fill="none" stroke="none"/><text fill="#000000" font-family="Arial" font-size="13px" font-style="normal" font-weight="normal" stroke="none" text-decoration="none" x="502" y="403.5">-generateMonster(): void</text></g></g><g transform="translate(-406,-195) scale(1,1)"><g><path fill="none" stroke="none"/><text fill="#000000" font-family="Arial" font-size="13px" font-style="normal" font-weight="normal" stroke="none" text-decoration="none" x="502" y="418.5">+removeMonster(deadMonster: Monster): void</text></g></g><g transform="translate(-406,-195) scale(1,1)"><g><path fill="none" stroke="none"/><text fill="#000000" font-family="Arial" font-size="13px" font-style="normal" font-weight="normal" stroke="none" text-decoration="none" x="502" y="433.5">+getNumberOfMonster(): int</text></g></g><g transform="translate(-406,-195) scale(1,1)"><g><path fill="none" stroke="none"/><text fill="#000000" font-family="Arial" font-size="13px" font-style="normal" font-weight="normal" stroke="none" text-decoration="none" x="502" y="448.5">+getSize(): int</text></g></g><g transform="translate(-406,-195) scale(1,1)"><g><path fill="none" stroke="none"/><text fill="#000000" font-family="Arial" font-size="13px" font-style="normal" font-weight="normal" stroke="none" text-decoration="none" x="502" y="463.5">+setHero(hero: Hero): void</text></g></g><g transform="translate(-406,-195) scale(1,1)"><g><path fill="none" stroke="none"/><text fill="#000000" font-family="Arial" font-size="13px" font-style="normal" font-weight="normal" stroke="none" text-decoration="none" x="502" y="478.5">+isNearMonster(): boolean</text></g></g><g transform="translate(-406,-195) scale(1,1)"><g><path fill="none" stroke="none"/><text fill="#000000" font-family="Arial" font-size="13px" font-style="normal" font-weight="normal" stroke="none" text-decoration="none" x="502" y="493.5">+getNearbyMonster(): Monster</text></g></g><g transform="translate(-406,-195) scale(1,1)"><g><path fill="none" stroke="none"/><text fill="#000000" font-family="Arial" font-size="13px" font-style="normal" font-weight="normal" stroke="none" text-decoration="none" x="502" y="508.5">+addMonster(monster: Monster): void</text></g></g><g transform="translate(-406,-195) scale(1,1)"><g><path fill="none" stroke="none"/><text fill="#000000" font-family="Arial" font-size="13px" font-style="normal" font-weight="normal" stroke="none" text-decoration="none" x="502" y="523.5">+moveCharacter(direction: char): void</text></g></g><g transform="translate(-406,-195) scale(1,1)"><g><path fill="none" stroke="none"/><text fill="#000000" font-family="Arial" font-size="13px" font-style="normal" font-weight="normal" stroke="none" text-decoration="none" x="502" y="538.5">+display(): void</text></g></g><g transform="translate(-406,-195) scale(1,1)"><rect fill="#C0C0C0" height="72" opacity="0.2" stroke="none" width="111.2353515625" x="423" y="863"/></g><g transform="translate(-406,-195) scale(1,1)"><rect fill="#ffffff" height="72" stroke="none" width="111.2353515625" x="416" y="856"/></g><g transform="translate(-406,-195) scale(1,1)"><path d="M 416 856 L 527.2353515625 856 L 527.2353515625 928 L 416 928 L 416 856 Z Z" fill="none" stroke="#000000" stroke-miterlimit="10"/></g><g transform="translate(-406,-195) scale(1,1)"><path d="M 416 896 L 527.2353515625 896" fill="none" stroke="#000000" stroke-miterlimit="10"/></g><g transform="translate(-406,-195) scale(1,1)"><path d="M 416 906 L 527.2353515625 906" fill="none" stroke="#000000" stroke-miterlimit="10"/></g><g transform="translate(-406,-195) scale(1,1)"><g><path fill="none" stroke="none"/><text fill="#000000" font-family="Arial" font-size="13px" font-style="normal" font-weight="bold" stroke="none" text-decoration="none" x="431.1513671875" y="873.5">GrassSquare</text></g></g><g transform="translate(-406,-195) scale(1,1)"><g><path fill="none" stroke="none"/><text fill="#000000" font-family="Arial" font-size="13px" font-style="normal" font-weight="normal" stroke="none" text-decoration="none" x="439.838134765625" y="888.5">(from map)</text></g></g><g transform="translate(-406,-195) scale(1,1)"><g><path fill="none" stroke="none"/><text fill="#000000" font-family="Arial" font-size="13px" font-style="normal" font-weight="normal" stroke="none" text-decoration="none" x="421" y="921.5">+toString(): String</text></g></g><g transform="translate(-406,-195) scale(1,1)"><rect fill="#C0C0C0" height="100" opacity="0.2" stroke="none" width="249.2333984375" x="519" y="639"/></g><g transform="translate(-406,-195) scale(1,1)"><rect fill="#ffffff" height="100" stroke="none" width="249.2333984375" x="512" y="632"/></g><g transform="translate(-406,-195) scale(1,1)"><path d="M 512 632 L 761.2333984375 632 L 761.2333984375 732 L 512 732 L 512 632 Z Z" fill="none" stroke="#000000" stroke-miterlimit="10"/></g><g transform="translate(-406,-195) scale(1,1)"><path d="M 512 672 L 761.2333984375 672" fill="none" stroke="#000000" stroke-miterlimit="10"/></g><g transform="translate(-406,-195) scale(1,1)"><path d="M 512 695 L 761.2333984375 695" fill="none" stroke="#000000" stroke-miterlimit="10"/></g><g transform="translate(-406,-195) scale(1,1)"><g><path fill="none" stroke="none"/><text fill="#000000" font-family="Arial" font-size="13px" font-style="italic" font-weight="bold" stroke="none" text-decoration="none" x="601.580810546875" y="649.5">MapSquare</text></g></g><g transform="translate(-406,-195) scale(1,1)"><g><path fill="none" stroke="none"/><text fill="#000000" font-family="Arial" font-size="13px" font-style="normal" font-weight="normal" stroke="none" text-decoration="none" x="604.837158203125" y="664.5">(from map)</text></g></g><g transform="translate(-406,-195) scale(1,1)"><g><path fill="none" stroke="none"/><text fill="#000000" font-family="Arial" font-size="13px" font-style="normal" font-weight="normal" stroke="none" text-decoration="none" x="517" y="687.5">#character: Character = null</text></g></g><g transform="translate(-406,-195) scale(1,1)"><g><path fill="none" stroke="none"/><text fill="#000000" font-family="Arial" font-size="13px" font-style="normal" font-weight="normal" stroke="none" text-decoration="none" x="517" y="710.5">+setCharacter(character: Character): void</text></g></g><g transform="translate(-406,-195) scale(1,1)"><g><path fill="none" stroke="none"/><text fill="#000000" font-family="Arial" font-size="13px" font-style="italic" font-weight="normal" stroke="none" text-decoration="none" x="517" y="725.5">+toString(): String</text></g></g><g transform="translate(-406,-195) scale(1,1)"><path d="M 424 856 L 424 808 L 638 808 L 638 732" fill="none" stroke="#000000" stroke-miterlimit="10"/></g><g transform="translate(-406,-195) scale(1,1)"><path d="M 646.419035512032 752.3253497152483 L 638 732 L 629.580964487968 752.3253497152483" fill="#FFFFFF" stroke="none"/></g><g transform="translate(-406,-195) scale(1,1)"><path d="M 646.419035512032 752.3253497152483 L 638 732 L 629.580964487968 752.3253497152483 L 646.419035512032 752.3253497152483" fill="none" stroke="#000000" stroke-miterlimit="10"/></g><g transform="translate(-406,-195) scale(1,1)"><rect fill="#C0C0C0" height="72" opacity="0.2" stroke="none" width="111.2353515625" x="743" y="863"/></g><g transform="translate(-406,-195) scale(1,1)"><rect fill="#ffffff" height="72" stroke="none" width="111.2353515625" x="736" y="856"/></g><g transform="translate(-406,-195) scale(1,1)"><path d="M 736 856 L 847.2353515625 856 L 847.2353515625 928 L 736 928 L 736 856 Z Z" fill="none" stroke="#000000" stroke-miterlimit="10"/></g><g transform="translate(-406,-195) scale(1,1)"><path d="M 736 896 L 847.2353515625 896" fill="none" stroke="#000000" stroke-miterlimit="10"/></g><g transform="translate(-406,-195) scale(1,1)"><path d="M 736 906 L 847.2353515625 906" fill="none" stroke="#000000" stroke-miterlimit="10"/></g><g transform="translate(-406,-195) scale(1,1)"><g><path fill="none" stroke="none"/><text fill="#000000" font-family="Arial" font-size="13px" font-style="normal" font-weight="bold" stroke="none" text-decoration="none" x="749.716796875" y="873.5">ForestSquare</text></g></g><g transform="translate(-406,-195) scale(1,1)"><g><path fill="none" stroke="none"/><text fill="#000000" font-family="Arial" font-size="13px" font-style="normal" font-weight="normal" stroke="none" text-decoration="none" x="759.838134765625" y="888.5">(from map)</text></g></g><g transform="translate(-406,-195) scale(1,1)"><g><path fill="none" stroke="none"/><text fill="#000000" font-family="Arial" font-size="13px" font-style="normal" font-weight="normal" stroke="none" text-decoration="none" x="741" y="921.5">+toString(): String</text></g></g><g transform="translate(-406,-195) scale(1,1)"><path d="M 791 855 L 792 808 L 640 808 L 638 733" fill="none" stroke="#000000" stroke-miterlimit="10"/></g><g transform="translate(-406,-195) scale(1,1)"><path d="M 646.9578603867695 753.0936989449714 L 638 733 L 630.1257730412968 753.5425546075173" fill="#FFFFFF" stroke="none"/></g><g transform="translate(-406,-195) scale(1,1)"><path d="M 646.9578603867695 753.0936989449714 L 638 733 L 630.1257730412968 753.5425546075173 L 646.9578603867695 753.0936989449714" fill="none" stroke="#000000" stroke-miterlimit="10"/></g><g transform="translate(-406,-195) scale(1,1)"><rect fill="#C0C0C0" height="72" opacity="0.2" stroke="none" width="111.2353515625" x="583" y="863"/></g><g transform="translate(-406,-195) scale(1,1)"><rect fill="#ffffff" height="72" stroke="none" width="111.2353515625" x="576" y="856"/></g><g transform="translate(-406,-195) scale(1,1)"><path d="M 576 856 L 687.2353515625 856 L 687.2353515625 928 L 576 928 L 576 856 Z Z" fill="none" stroke="#000000" stroke-miterlimit="10"/></g><g transform="translate(-406,-195) scale(1,1)"><path d="M 576 896 L 687.2353515625 896" fill="none" stroke="#000000" stroke-miterlimit="10"/></g><g transform="translate(-406,-195) scale(1,1)"><path d="M 576 906 L 687.2353515625 906" fill="none" stroke="#000000" stroke-miterlimit="10"/></g><g transform="translate(-406,-195) scale(1,1)"><g><path fill="none" stroke="none"/><text fill="#000000" font-family="Arial" font-size="13px" font-style="normal" font-weight="bold" stroke="none" text-decoration="none" x="594.049072265625" y="873.5">PlainSquare</text></g></g><g transform="translate(-406,-195) scale(1,1)"><g><path fill="none" stroke="none"/><text fill="#000000" font-family="Arial" font-size="13px" font-style="normal" font-weight="normal" stroke="none" text-decoration="none" x="599.838134765625" y="888.5">(from map)</text></g></g><g transform="translate(-406,-195) scale(1,1)"><g><path fill="none" stroke="none"/><text fill="#000000" font-family="Arial" font-size="13px" font-style="normal" font-weight="normal" stroke="none" text-decoration="none" x="581" y="921.5">+toString(): String</text></g></g><g transform="translate(-406,-195) scale(1,1)"><path d="M 640 856 L 640 732" fill="none" stroke="#000000" stroke-miterlimit="10"/></g><g transform="translate(-406,-195) scale(1,1)"><path d="M 648.419035512032 752.3253497152483 L 640 732 L 631.580964487968 752.3253497152483" fill="#FFFFFF" stroke="none"/></g><g transform="translate(-406,-195) scale(1,1)"><path d="M 648.419035512032 752.3253497152483 L 640 732 L 631.580964487968 752.3253497152483 L 648.419035512032 752.3253497152483" fill="none" stroke="#000000" stroke-miterlimit="10"/></g><g transform="translate(-406,-195) scale(1,1)"><path d="M 636 631 L 636 546" fill="none" stroke="#000000" stroke-miterlimit="10"/></g><g transform="translate(-406,-195) scale(1,1)"><path d="M 640.209517756016 556.1626748576241 L 636 546 L 631.790482243984 556.1626748576241 L 636 568" fill="#000000" stroke="none"/></g><g transform="translate(-406,-195) scale(1,1)"><path d="M 640.209517756016 556.1626748576241 L 636 546 L 631.790482243984 556.1626748576241 L 636 568 L 640.209517756016 556.1626748576241" fill="none" stroke="#000000" stroke-miterlimit="10"/></g><g transform="translate(-406,-195) scale(1,1)"><g><path fill="none" stroke="none"/><text fill="#000000" font-family="Arial" font-size="13px" font-style="normal" font-weight="normal" stroke="none" text-decoration="none" x="639.5" y="625.5">+1..n</text></g></g></g></svg>