<?xml version="1.0" encoding="UTF-8" standalone="no"?><svg xmlns="http://www.w3.org/2000/svg" xmlns:xlink="http://www.w3.org/1999/xlink" height="1141" version="1.1" width="1121.4521484375"><defs/><g><g transform="translate(-70,-174) scale(1,1)"><rect fill="#C0C0C0" height="430" opacity="0.2" stroke="none" width="268.76513671875" x="503" y="191"/></g><g transform="translate(-70,-174) scale(1,1)"><rect fill="#ffffff" height="430" stroke="none" width="268.76513671875" x="496" y="184"/></g><g transform="translate(-70,-174) scale(1,1)"><path d="M 496 184 L 764.76513671875 184 L 764.76513671875 614 L 496 614 L 496 184 Z Z" fill="none" stroke="#000000" stroke-miterlimit="10"/></g><g transform="translate(-70,-174) scale(1,1)"><path d="M 496 224 L 764.76513671875 224" fill="none" stroke="#000000" stroke-miterlimit="10"/></g><g transform="translate(-70,-174) scale(1,1)"><path d="M 496 352 L 764.76513671875 352" fill="none" stroke="#000000" stroke-miterlimit="10"/></g><g transform="translate(-70,-174) scale(1,1)"><g><path fill="none" stroke="none"/><text fill="#000000" font-family="Arial" font-size="13px" font-style="italic" font-weight="bold" stroke="none" text-decoration="none" x="600.034423828125" y="201.5">Character</text></g></g><g transform="translate(-70,-174) scale(1,1)"><g><path fill="none" stroke="none"/><text fill="#000000" font-family="Arial" font-size="13px" font-style="normal" font-weight="normal" stroke="none" text-decoration="none" x="598.60302734375" y="216.5">(from mob)</text></g></g><g transform="translate(-70,-174) scale(1,1)"><g><path fill="none" stroke="none"/><text fill="#000000" font-family="Arial" font-size="13px" font-style="normal" font-weight="normal" stroke="none" text-decoration="none" x="501" y="239.5">#hp: int</text></g></g><g transform="translate(-70,-174) scale(1,1)"><g><path fill="none" stroke="none"/><text fill="#000000" font-family="Arial" font-size="13px" font-style="normal" font-weight="normal" stroke="none" text-decoration="none" x="501" y="254.5">-MAX_HP: int {readOnly}</text></g></g><g transform="translate(-70,-174) scale(1,1)"><g><path fill="none" stroke="none"/><text fill="#000000" font-family="Arial" font-size="13px" font-style="normal" font-weight="normal" stroke="none" text-decoration="none" x="501" y="269.5">-ENDURANCE: int {readOnly}</text></g></g><g transform="translate(-70,-174) scale(1,1)"><g><path fill="none" stroke="none"/><text fill="#000000" font-family="Arial" font-size="13px" font-style="normal" font-weight="normal" stroke="none" text-decoration="none" x="501" y="284.5">-FORCE: int {readOnly}</text></g></g><g transform="translate(-70,-174) scale(1,1)"><g><path fill="none" stroke="none"/><text fill="#000000" font-family="Arial" font-size="13px" font-style="normal" font-weight="normal" stroke="none" text-decoration="none" x="501" y="299.5">#gold: int = 0</text></g></g><g transform="translate(-70,-174) scale(1,1)"><g><path fill="none" stroke="none"/><text fill="#000000" font-family="Arial" font-size="13px" font-style="normal" font-weight="normal" stroke="none" text-decoration="none" x="501" y="314.5">#leather: int = 0</text></g></g><g transform="translate(-70,-174) scale(1,1)"><g><path fill="none" stroke="none"/><text fill="#000000" font-family="Arial" font-size="13px" font-style="normal" font-weight="normal" stroke="none" text-decoration="none" x="501" y="329.5">#positionX: int</text></g></g><g transform="translate(-70,-174) scale(1,1)"><g><path fill="none" stroke="none"/><text fill="#000000" font-family="Arial" font-size="13px" font-style="normal" font-weight="normal" stroke="none" text-decoration="none" x="501" y="344.5">#positionY: int</text></g></g><g transform="translate(-70,-174) scale(1,1)"><g><path fill="none" stroke="none"/><text fill="#000000" font-family="Arial" font-size="13px" font-style="normal" font-weight="normal" stroke="none" text-decoration="none" x="501" y="367.5">«constructor»+Character(posX: int, posY: int)</text></g></g><g transform="translate(-70,-174) scale(1,1)"><g><path fill="none" stroke="none"/><text fill="#000000" font-family="Arial" font-size="13px" font-style="normal" font-weight="normal" stroke="none" text-decoration="none" x="501" y="382.5">+changePosition(newX: int, newY: int): void</text></g></g><g transform="translate(-70,-174) scale(1,1)"><g><path fill="none" stroke="none"/><text fill="#000000" font-family="Arial" font-size="13px" font-style="normal" font-weight="normal" stroke="none" text-decoration="none" x="501" y="397.5">+getPositionX(): int</text></g></g><g transform="translate(-70,-174) scale(1,1)"><g><path fill="none" stroke="none"/><text fill="#000000" font-family="Arial" font-size="13px" font-style="normal" font-weight="normal" stroke="none" text-decoration="none" x="501" y="412.5">+getPositionY(): int</text></g></g><g transform="translate(-70,-174) scale(1,1)"><g><path fill="none" stroke="none"/><text fill="#000000" font-family="Arial" font-size="13px" font-style="normal" font-weight="normal" stroke="none" text-decoration="none" x="501" y="427.5">#computeModifier(value: int): int</text></g></g><g transform="translate(-70,-174) scale(1,1)"><g><path fill="none" stroke="none"/><text fill="#000000" font-family="Arial" font-size="13px" font-style="normal" font-weight="normal" stroke="none" text-decoration="none" x="501" y="442.5">#getBaseDamage(): int</text></g></g><g transform="translate(-70,-174) scale(1,1)"><g><path fill="none" stroke="none"/><text fill="#000000" font-family="Arial" font-size="13px" font-style="normal" font-weight="normal" stroke="none" text-decoration="none" x="501" y="457.5">#getDamage(): int</text></g></g><g transform="translate(-70,-174) scale(1,1)"><g><path fill="none" stroke="none"/><text fill="#000000" font-family="Arial" font-size="13px" font-style="normal" font-weight="normal" stroke="none" text-decoration="none" x="501" y="472.5">+hit(enemy: Character): void</text></g></g><g transform="translate(-70,-174) scale(1,1)"><g><path fill="none" stroke="none"/><text fill="#000000" font-family="Arial" font-size="13px" font-style="normal" font-weight="normal" stroke="none" text-decoration="none" x="501" y="487.5">#getHit(damage: int): void</text></g></g><g transform="translate(-70,-174) scale(1,1)"><g><path fill="none" stroke="none"/><text fill="#000000" font-family="Arial" font-size="13px" font-style="normal" font-weight="normal" stroke="none" text-decoration="none" x="501" y="502.5">+isDead(): boolean</text></g></g><g transform="translate(-70,-174) scale(1,1)"><g><path fill="none" stroke="none"/><text fill="#000000" font-family="Arial" font-size="13px" font-style="normal" font-weight="normal" stroke="none" text-decoration="none" x="501" y="517.5">+getEndurance(): int</text></g></g><g transform="translate(-70,-174) scale(1,1)"><g><path fill="none" stroke="none"/><text fill="#000000" font-family="Arial" font-size="13px" font-style="normal" font-weight="normal" stroke="none" text-decoration="none" x="501" y="532.5">+getForce(): int</text></g></g><g transform="translate(-70,-174) scale(1,1)"><g><path fill="none" stroke="none"/><text fill="#000000" font-family="Arial" font-size="13px" font-style="normal" font-weight="normal" stroke="none" text-decoration="none" x="501" y="547.5">+getHp(): int</text></g></g><g transform="translate(-70,-174) scale(1,1)"><g><path fill="none" stroke="none"/><text fill="#000000" font-family="Arial" font-size="13px" font-style="normal" font-weight="normal" stroke="none" text-decoration="none" x="501" y="562.5">+getMacHealth(): int</text></g></g><g transform="translate(-70,-174) scale(1,1)"><g><path fill="none" stroke="none"/><text fill="#000000" font-family="Arial" font-size="13px" font-style="normal" font-weight="normal" stroke="none" text-decoration="none" x="501" y="577.5">+getLeather(): int</text></g></g><g transform="translate(-70,-174) scale(1,1)"><g><path fill="none" stroke="none"/><text fill="#000000" font-family="Arial" font-size="13px" font-style="normal" font-weight="normal" stroke="none" text-decoration="none" x="501" y="592.5">+getGold(): int</text></g></g><g transform="translate(-70,-174) scale(1,1)"><g><path fill="none" stroke="none"/><text fill="#000000" font-family="Arial" font-size="13px" font-style="italic" font-weight="normal" stroke="none" text-decoration="none" x="501" y="607.5">+getName(): String</text></g></g><g transform="translate(-70,-174) scale(1,1)"><rect fill="#C0C0C0" height="310" opacity="0.2" stroke="none" width="239.8642578125" x="263" y="735"/></g><g transform="translate(-70,-174) scale(1,1)"><rect fill="#ffffff" height="310" stroke="none" width="239.8642578125" x="256" y="728"/></g><g transform="translate(-70,-174) scale(1,1)"><path d="M 256 728 L 495.8642578125 728 L 495.8642578125 1038 L 256 1038 L 256 728 Z Z" fill="none" stroke="#000000" stroke-miterlimit="10"/></g><g transform="translate(-70,-174) scale(1,1)"><path d="M 256 768 L 495.8642578125 768" fill="none" stroke="#000000" stroke-miterlimit="10"/></g><g transform="translate(-70,-174) scale(1,1)"><path d="M 256 821 L 495.8642578125 821" fill="none" stroke="#000000" stroke-miterlimit="10"/></g><g transform="translate(-70,-174) scale(1,1)"><g><path fill="none" stroke="none"/><text fill="#000000" font-family="Arial" font-size="13px" font-style="italic" font-weight="bold" stroke="none" text-decoration="none" x="361.123046875" y="745.5">Hero</text></g></g><g transform="translate(-70,-174) scale(1,1)"><g><path fill="none" stroke="none"/><text fill="#000000" font-family="Arial" font-size="13px" font-style="normal" font-weight="normal" stroke="none" text-decoration="none" x="344.152587890625" y="760.5">(from mob)</text></g></g><g transform="translate(-70,-174) scale(1,1)"><g><path fill="none" stroke="none"/><text fill="#000000" font-family="Arial" font-size="13px" font-style="normal" font-weight="normal" stroke="none" text-decoration="none" x="261" y="783.5">-mp: int</text></g></g><g transform="translate(-70,-174) scale(1,1)"><g><path fill="none" stroke="none"/><text fill="#000000" font-family="Arial" font-size="13px" font-style="normal" font-weight="normal" stroke="none" text-decoration="none" x="261" y="798.5">-maxMagic: int</text></g></g><g transform="translate(-70,-174) scale(1,1)"><g><path fill="none" stroke="none"/><text fill="#000000" font-family="Arial" font-size="13px" font-style="normal" font-weight="normal" stroke="none" text-decoration="none" x="261" y="813.5">-items: Item[*] {collection="ArrayList"}</text></g></g><g transform="translate(-70,-174) scale(1,1)"><g><path fill="none" stroke="none"/><text fill="#000000" font-family="Arial" font-size="13px" font-style="normal" font-weight="normal" stroke="none" text-decoration="none" x="261" y="836.5">«constructor»+Hero(posX: int, posY: int)</text></g></g><g transform="translate(-70,-174) scale(1,1)"><g><path fill="none" stroke="none"/><text fill="#000000" font-family="Arial" font-size="13px" font-style="normal" font-weight="normal" stroke="none" text-decoration="none" x="261" y="851.5">+restoreHealth(): void</text></g></g><g transform="translate(-70,-174) scale(1,1)"><g><path fill="none" stroke="none"/><text fill="#000000" font-family="Arial" font-size="13px" font-style="normal" font-weight="normal" stroke="none" text-decoration="none" x="261" y="866.5">+addItem(item: Item): void</text></g></g><g transform="translate(-70,-174) scale(1,1)"><g><path fill="none" stroke="none"/><text fill="#000000" font-family="Arial" font-size="13px" font-style="normal" font-weight="normal" stroke="none" text-decoration="none" x="261" y="881.5">+UseItem(): void</text></g></g><g transform="translate(-70,-174) scale(1,1)"><g><path fill="none" stroke="none"/><text fill="#000000" font-family="Arial" font-size="13px" font-style="normal" font-weight="normal" stroke="none" text-decoration="none" x="261" y="896.5">+throwSpell(enemy: Character): void</text></g></g><g transform="translate(-70,-174) scale(1,1)"><g><path fill="none" stroke="none"/><text fill="#000000" font-family="Arial" font-size="13px" font-style="normal" font-weight="normal" stroke="none" text-decoration="none" x="261" y="911.5">+hit(enemy: Character): void</text></g></g><g transform="translate(-70,-174) scale(1,1)"><g><path fill="none" stroke="none"/><text fill="#000000" font-family="Arial" font-size="13px" font-style="normal" font-weight="normal" stroke="none" text-decoration="none" x="261" y="926.5">+addHp(hp: int): void</text></g></g><g transform="translate(-70,-174) scale(1,1)"><g><path fill="none" stroke="none"/><text fill="#000000" font-family="Arial" font-size="13px" font-style="normal" font-weight="normal" stroke="none" text-decoration="none" x="261" y="941.5">+addMp(mp: int): void</text></g></g><g transform="translate(-70,-174) scale(1,1)"><g><path fill="none" stroke="none"/><text fill="#000000" font-family="Arial" font-size="13px" font-style="normal" font-weight="normal" stroke="none" text-decoration="none" x="261" y="956.5">-addGold(gold: int): void</text></g></g><g transform="translate(-70,-174) scale(1,1)"><g><path fill="none" stroke="none"/><text fill="#000000" font-family="Arial" font-size="13px" font-style="normal" font-weight="normal" stroke="none" text-decoration="none" x="261" y="971.5">-addLeather(leather: int): void</text></g></g><g transform="translate(-70,-174) scale(1,1)"><g><path fill="none" stroke="none"/><text fill="#000000" font-family="Arial" font-size="13px" font-style="normal" font-weight="normal" stroke="none" text-decoration="none" x="261" y="986.5">+getMp(): int</text></g></g><g transform="translate(-70,-174) scale(1,1)"><g><path fill="none" stroke="none"/><text fill="#000000" font-family="Arial" font-size="13px" font-style="normal" font-weight="normal" stroke="none" text-decoration="none" x="261" y="1001.5">+getMaxMagic(): int</text></g></g><g transform="translate(-70,-174) scale(1,1)"><g><path fill="none" stroke="none"/><text fill="#000000" font-family="Arial" font-size="13px" font-style="normal" font-weight="normal" stroke="none" text-decoration="none" x="261" y="1016.5">+canThrowSpell(): boolean</text></g></g><g transform="translate(-70,-174) scale(1,1)"><g><path fill="none" stroke="none"/><text fill="#000000" font-family="Arial" font-size="13px" font-style="normal" font-weight="normal" stroke="none" text-decoration="none" x="261" y="1031.5">+toString(): String</text></g></g><g transform="translate(-70,-174) scale(1,1)"><path d="M 376 727 L 376 664 L 640 664 L 638 615" fill="none" stroke="#000000" stroke-miterlimit="10"/></g><g transform="translate(-70,-174) scale(1,1)"><path d="M 647.2409472441365 634.9650918863672 L 638 615 L 630.4168846010532 635.6517883207788" fill="#FFFFFF" stroke="none"/></g><g transform="translate(-70,-174) scale(1,1)"><path d="M 647.2409472441365 634.9650918863672 L 638 615 L 630.4168846010532 635.6517883207788 L 647.2409472441365 634.9650918863672" fill="none" stroke="#000000" stroke-miterlimit="10"/></g><g transform="translate(-70,-174) scale(1,1)"><rect fill="#C0C0C0" height="87" opacity="0.2" stroke="none" width="258.64697265625" x="775" y="735"/></g><g transform="translate(-70,-174) scale(1,1)"><rect fill="#ffffff" height="87" stroke="none" width="258.64697265625" x="768" y="728"/></g><g transform="translate(-70,-174) scale(1,1)"><path d="M 768 728 L 1026.64697265625 728 L 1026.64697265625 815 L 768 815 L 768 728 Z Z" fill="none" stroke="#000000" stroke-miterlimit="10"/></g><g transform="translate(-70,-174) scale(1,1)"><path d="M 768 768 L 1026.64697265625 768" fill="none" stroke="#000000" stroke-miterlimit="10"/></g><g transform="translate(-70,-174) scale(1,1)"><path d="M 768 778 L 1026.64697265625 778" fill="none" stroke="#000000" stroke-miterlimit="10"/></g><g transform="translate(-70,-174) scale(1,1)"><g><path fill="none" stroke="none"/><text fill="#000000" font-family="Arial" font-size="13px" font-style="italic" font-weight="bold" stroke="none" text-decoration="none" x="872.0439453125" y="745.5">Monster</text></g></g><g transform="translate(-70,-174) scale(1,1)"><g><path fill="none" stroke="none"/><text fill="#000000" font-family="Arial" font-size="13px" font-style="normal" font-weight="normal" stroke="none" text-decoration="none" x="865.5439453125" y="760.5">(from mob)</text></g></g><g transform="translate(-70,-174) scale(1,1)"><g><path fill="none" stroke="none"/><text fill="#000000" font-family="Arial" font-size="13px" font-style="normal" font-weight="normal" stroke="none" text-decoration="none" x="773" y="793.5">«constructor»+Monster(posX: int, posY: int)</text></g></g><g transform="translate(-70,-174) scale(1,1)"><g><path fill="none" stroke="none"/><text fill="#000000" font-family="Arial" font-size="13px" font-style="italic" font-weight="normal" stroke="none" text-decoration="none" x="773" y="808.5">+getName(): String</text></g></g><g transform="translate(-70,-174) scale(1,1)"><path d="M 897 727 L 896 664 L 640 664 L 638 615" fill="none" stroke="#000000" stroke-miterlimit="10"/></g><g transform="translate(-70,-174) scale(1,1)"><path d="M 647.2409472441365 634.9650918863672 L 638 615 L 630.4168846010532 635.6517883207788" fill="#FFFFFF" stroke="none"/></g><g transform="translate(-70,-174) scale(1,1)"><path d="M 647.2409472441365 634.9650918863672 L 638 615 L 630.4168846010532 635.6517883207788 L 647.2409472441365 634.9650918863672" fill="none" stroke="#000000" stroke-miterlimit="10"/></g><g transform="translate(-70,-174) scale(1,1)"><rect fill="#C0C0C0" height="145" opacity="0.2" stroke="none" width="253.59423828125" x="87" y="1167"/></g><g transform="translate(-70,-174) scale(1,1)"><rect fill="#ffffff" height="145" stroke="none" width="253.59423828125" x="80" y="1160"/></g><g transform="translate(-70,-174) scale(1,1)"><path d="M 80 1160 L 333.59423828125 1160 L 333.59423828125 1305 L 80 1305 L 80 1160 Z Z" fill="none" stroke="#000000" stroke-miterlimit="10"/></g><g transform="translate(-70,-174) scale(1,1)"><path d="M 80 1200 L 333.59423828125 1200" fill="none" stroke="#000000" stroke-miterlimit="10"/></g><g transform="translate(-70,-174) scale(1,1)"><path d="M 80 1238 L 333.59423828125 1238" fill="none" stroke="#000000" stroke-miterlimit="10"/></g><g transform="translate(-70,-174) scale(1,1)"><g><path fill="none" stroke="none"/><text fill="#000000" font-family="Arial" font-size="13px" font-style="normal" font-weight="bold" stroke="none" text-decoration="none" x="184.767578125" y="1177.5">Human</text></g></g><g transform="translate(-70,-174) scale(1,1)"><g><path fill="none" stroke="none"/><text fill="#000000" font-family="Arial" font-size="13px" font-style="normal" font-weight="normal" stroke="none" text-decoration="none" x="175.017578125" y="1192.5">(from mob)</text></g></g><g transform="translate(-70,-174) scale(1,1)"><g><path fill="none" stroke="none"/><text fill="#000000" font-family="Arial" font-size="13px" font-style="normal" font-weight="normal" stroke="none" text-decoration="none" x="85" y="1215.5">~FOR_BONUS: int = 2 {readOnly}</text><path d="M 85 1217.5 L 281.5361328125 1217.5" fill="none" stroke="#000000" stroke-miterlimit="10"/></g></g><g transform="translate(-70,-174) scale(1,1)"><g><path fill="none" stroke="none"/><text fill="#000000" font-family="Arial" font-size="13px" font-style="normal" font-weight="normal" stroke="none" text-decoration="none" x="85" y="1230.5">~END_BONUS: int = 1 {readOnly}</text><path d="M 85 1232.5 L 281.54248046875 1232.5" fill="none" stroke="#000000" stroke-miterlimit="10"/></g></g><g transform="translate(-70,-174) scale(1,1)"><g><path fill="none" stroke="none"/><text fill="#000000" font-family="Arial" font-size="13px" font-style="normal" font-weight="normal" stroke="none" text-decoration="none" x="85" y="1253.5">«constructor»+Human(posX: int, posY: int)</text></g></g><g transform="translate(-70,-174) scale(1,1)"><g><path fill="none" stroke="none"/><text fill="#000000" font-family="Arial" font-size="13px" font-style="normal" font-weight="normal" stroke="none" text-decoration="none" x="85" y="1268.5">+getDamage(): int</text></g></g><g transform="translate(-70,-174) scale(1,1)"><g><path fill="none" stroke="none"/><text fill="#000000" font-family="Arial" font-size="13px" font-style="normal" font-weight="normal" stroke="none" text-decoration="none" x="85" y="1283.5">+toString(): String</text></g></g><g transform="translate(-70,-174) scale(1,1)"><g><path fill="none" stroke="none"/><text fill="#000000" font-family="Arial" font-size="13px" font-style="normal" font-weight="normal" stroke="none" text-decoration="none" x="85" y="1298.5">+getName(): String</text></g></g><g transform="translate(-70,-174) scale(1,1)"><path d="M 207 1159 L 208 1112 L 368 1112 L 370 1039" fill="none" stroke="#000000" stroke-miterlimit="10"/></g><g transform="translate(-70,-174) scale(1,1)"><path d="M 377.8592275621258 1059.5482977914648 L 370 1039 L 361.02747239388196 1059.0871538142528" fill="#FFFFFF" stroke="none"/></g><g transform="translate(-70,-174) scale(1,1)"><path d="M 377.8592275621258 1059.5482977914648 L 370 1039 L 361.02747239388196 1059.0871538142528 L 377.8592275621258 1059.5482977914648" fill="none" stroke="#000000" stroke-miterlimit="10"/></g><g transform="translate(-70,-174) scale(1,1)"><rect fill="#C0C0C0" height="115" opacity="0.2" stroke="none" width="245.63427734375" x="375" y="1167"/></g><g transform="translate(-70,-174) scale(1,1)"><rect fill="#ffffff" height="115" stroke="none" width="245.63427734375" x="368" y="1160"/></g><g transform="translate(-70,-174) scale(1,1)"><path d="M 368 1160 L 613.63427734375 1160 L 613.63427734375 1275 L 368 1275 L 368 1160 Z Z" fill="none" stroke="#000000" stroke-miterlimit="10"/></g><g transform="translate(-70,-174) scale(1,1)"><path d="M 368 1200 L 613.63427734375 1200" fill="none" stroke="#000000" stroke-miterlimit="10"/></g><g transform="translate(-70,-174) scale(1,1)"><path d="M 368 1223 L 613.63427734375 1223" fill="none" stroke="#000000" stroke-miterlimit="10"/></g><g transform="translate(-70,-174) scale(1,1)"><g><path fill="none" stroke="none"/><text fill="#000000" font-family="Arial" font-size="13px" font-style="normal" font-weight="bold" stroke="none" text-decoration="none" x="472.758056640625" y="1177.5">Dwarf</text></g></g><g transform="translate(-70,-174) scale(1,1)"><g><path fill="none" stroke="none"/><text fill="#000000" font-family="Arial" font-size="13px" font-style="normal" font-weight="normal" stroke="none" text-decoration="none" x="459.03759765625" y="1192.5">(from mob)</text></g></g><g transform="translate(-70,-174) scale(1,1)"><g><path fill="none" stroke="none"/><text fill="#000000" font-family="Arial" font-size="13px" font-style="normal" font-weight="normal" stroke="none" text-decoration="none" x="373" y="1215.5">~END_BONUS: int = 1 {readOnly}</text><path d="M 373 1217.5 L 569.54248046875 1217.5" fill="none" stroke="#000000" stroke-miterlimit="10"/></g></g><g transform="translate(-70,-174) scale(1,1)"><g><path fill="none" stroke="none"/><text fill="#000000" font-family="Arial" font-size="13px" font-style="normal" font-weight="normal" stroke="none" text-decoration="none" x="373" y="1238.5">«constructor»+Dwarf(posX: int, posY: int)</text></g></g><g transform="translate(-70,-174) scale(1,1)"><g><path fill="none" stroke="none"/><text fill="#000000" font-family="Arial" font-size="13px" font-style="normal" font-weight="normal" stroke="none" text-decoration="none" x="373" y="1253.5">+toString(): String</text></g></g><g transform="translate(-70,-174) scale(1,1)"><g><path fill="none" stroke="none"/><text fill="#000000" font-family="Arial" font-size="13px" font-style="normal" font-weight="normal" stroke="none" text-decoration="none" x="373" y="1268.5">+getName(): String</text></g></g><g transform="translate(-70,-174) scale(1,1)"><path d="M 489 1159 L 488 1112 L 368 1112 L 370 1039" fill="none" stroke="#000000" stroke-miterlimit="10"/></g><g transform="translate(-70,-174) scale(1,1)"><path d="M 377.8592275621258 1059.5482977914648 L 370 1039 L 361.02747239388196 1059.0871538142528" fill="#FFFFFF" stroke="none"/></g><g transform="translate(-70,-174) scale(1,1)"><path d="M 377.8592275621258 1059.5482977914648 L 370 1039 L 361.02747239388196 1059.0871538142528 L 377.8592275621258 1059.5482977914648" fill="none" stroke="#000000" stroke-miterlimit="10"/></g><g transform="translate(-70,-174) scale(1,1)"><rect fill="#C0C0C0" height="130" opacity="0.2" stroke="none" width="232.6279296875" x="623" y="991"/></g><g transform="translate(-70,-174) scale(1,1)"><rect fill="#ffffff" height="130" stroke="none" width="232.6279296875" x="616" y="984"/></g><g transform="translate(-70,-174) scale(1,1)"><path d="M 616 984 L 848.6279296875 984 L 848.6279296875 1114 L 616 1114 L 616 984 Z Z" fill="none" stroke="#000000" stroke-miterlimit="10"/></g><g transform="translate(-70,-174) scale(1,1)"><path d="M 616 1024 L 848.6279296875 1024" fill="none" stroke="#000000" stroke-miterlimit="10"/></g><g transform="translate(-70,-174) scale(1,1)"><path d="M 616 1047 L 848.6279296875 1047" fill="none" stroke="#000000" stroke-miterlimit="10"/></g><g transform="translate(-70,-174) scale(1,1)"><g><path fill="none" stroke="none"/><text fill="#000000" font-family="Arial" font-size="13px" font-style="normal" font-weight="bold" stroke="none" text-decoration="none" x="721.113525390625" y="1001.5">Orc</text></g></g><g transform="translate(-70,-174) scale(1,1)"><g><path fill="none" stroke="none"/><text fill="#000000" font-family="Arial" font-size="13px" font-style="normal" font-weight="normal" stroke="none" text-decoration="none" x="700.534423828125" y="1016.5">(from mob)</text></g></g><g transform="translate(-70,-174) scale(1,1)"><g><path fill="none" stroke="none"/><text fill="#000000" font-family="Arial" font-size="13px" font-style="normal" font-weight="normal" stroke="none" text-decoration="none" x="621" y="1039.5">-FOR_BONUS: int = 1 {readOnly}</text><path d="M 621 1041.5 L 814.2734375 1041.5" fill="none" stroke="#000000" stroke-miterlimit="10"/></g></g><g transform="translate(-70,-174) scale(1,1)"><g><path fill="none" stroke="none"/><text fill="#000000" font-family="Arial" font-size="13px" font-style="normal" font-weight="normal" stroke="none" text-decoration="none" x="621" y="1062.5">«constructor»+Orc(posX: int, posY: int)</text></g></g><g transform="translate(-70,-174) scale(1,1)"><g><path fill="none" stroke="none"/><text fill="#000000" font-family="Arial" font-size="13px" font-style="normal" font-weight="normal" stroke="none" text-decoration="none" x="621" y="1077.5">+getDamage(): int</text></g></g><g transform="translate(-70,-174) scale(1,1)"><g><path fill="none" stroke="none"/><text fill="#000000" font-family="Arial" font-size="13px" font-style="normal" font-weight="normal" stroke="none" text-decoration="none" x="621" y="1092.5">+getName(): String</text></g></g><g transform="translate(-70,-174) scale(1,1)"><g><path fill="none" stroke="none"/><text fill="#000000" font-family="Arial" font-size="13px" font-style="normal" font-weight="normal" stroke="none" text-decoration="none" x="621" y="1107.5">+toString(): String</text></g></g><g transform="translate(-70,-174) scale(1,1)"><path d="M 734 983 L 736 928 L 896 928 L 897 816" fill="none" stroke="#000000" stroke-miterlimit="10"/></g><g transform="translate(-70,-174) scale(1,1)"><path d="M 905.237230848332 836.3997065653231 L 897 816 L 888.399830944499 836.2493726376103" fill="#FFFFFF" stroke="none"/></g><g transform="translate(-70,-174) scale(1,1)"><path d="M 905.237230848332 836.3997065653231 L 897 816 L 888.399830944499 836.2493726376103 L 905.237230848332 836.3997065653231" fill="none" stroke="#000000" stroke-miterlimit="10"/></g><g transform="translate(-70,-174) scale(1,1)"><rect fill="#C0C0C0" height="102" opacity="0.2" stroke="none" width="237.4521484375" x="951" y="991"/></g><g transform="translate(-70,-174) scale(1,1)"><rect fill="#ffffff" height="102" stroke="none" width="237.4521484375" x="944" y="984"/></g><g transform="translate(-70,-174) scale(1,1)"><path d="M 944 984 L 1181.4521484375 984 L 1181.4521484375 1086 L 944 1086 L 944 984 Z Z" fill="none" stroke="#000000" stroke-miterlimit="10"/></g><g transform="translate(-70,-174) scale(1,1)"><path d="M 944 1024 L 1181.4521484375 1024" fill="none" stroke="#000000" stroke-miterlimit="10"/></g><g transform="translate(-70,-174) scale(1,1)"><path d="M 944 1034 L 1181.4521484375 1034" fill="none" stroke="#000000" stroke-miterlimit="10"/></g><g transform="translate(-70,-174) scale(1,1)"><g><path fill="none" stroke="none"/><text fill="#000000" font-family="Arial" font-size="13px" font-style="normal" font-weight="bold" stroke="none" text-decoration="none" x="1048.767578125" y="1001.5">Wolf</text></g></g><g transform="translate(-70,-174) scale(1,1)"><g><path fill="none" stroke="none"/><text fill="#000000" font-family="Arial" font-size="13px" font-style="normal" font-weight="normal" stroke="none" text-decoration="none" x="1030.946533203125" y="1016.5">(from mob)</text></g></g><g transform="translate(-70,-174) scale(1,1)"><g><path fill="none" stroke="none"/><text fill="#000000" font-family="Arial" font-size="13px" font-style="normal" font-weight="normal" stroke="none" text-decoration="none" x="949" y="1049.5">«constructor»+Wolf(posX: int, posY: int)</text></g></g><g transform="translate(-70,-174) scale(1,1)"><g><path fill="none" stroke="none"/><text fill="#000000" font-family="Arial" font-size="13px" font-style="normal" font-weight="normal" stroke="none" text-decoration="none" x="949" y="1064.5">+getName(): String</text></g></g><g transform="translate(-70,-174) scale(1,1)"><g><path fill="none" stroke="none"/><text fill="#000000" font-family="Arial" font-size="13px" font-style="normal" font-weight="normal" stroke="none" text-decoration="none" x="949" y="1079.5">+toString(): String</text></g></g><g transform="translate(-70,-174) scale(1,1)"><path d="M 1063 983 L 1064 928 L 896 928 L 897 816" fill="none" stroke="#000000" stroke-miterlimit="10"/></g><g transform="translate(-70,-174) scale(1,1)"><path d="M 905.237230848332 836.3997065653231 L 897 816 L 888.399830944499 836.2493726376103" fill="#FFFFFF" stroke="none"/></g><g transform="translate(-70,-174) scale(1,1)"><path d="M 905.237230848332 836.3997065653231 L 897 816 L 888.399830944499 836.2493726376103 L 905.237230848332 836.3997065653231" fill="none" stroke="#000000" stroke-miterlimit="10"/></g><g transform="translate(-70,-174) scale(1,1)"><rect fill="#C0C0C0" height="115" opacity="0.2" stroke="none" width="265.166015625" x="767" y="1143"/></g><g transform="translate(-70,-174) scale(1,1)"><rect fill="#ffffff" height="115" stroke="none" width="265.166015625" x="760" y="1136"/></g><g transform="translate(-70,-174) scale(1,1)"><path d="M 760 1136 L 1025.166015625 1136 L 1025.166015625 1251 L 760 1251 L 760 1136 Z Z" fill="none" stroke="#000000" stroke-miterlimit="10"/></g><g transform="translate(-70,-174) scale(1,1)"><path d="M 760 1176 L 1025.166015625 1176" fill="none" stroke="#000000" stroke-miterlimit="10"/></g><g transform="translate(-70,-174) scale(1,1)"><path d="M 760 1199 L 1025.166015625 1199" fill="none" stroke="#000000" stroke-miterlimit="10"/></g><g transform="translate(-70,-174) scale(1,1)"><g><path fill="none" stroke="none"/><text fill="#000000" font-family="Arial" font-size="13px" font-style="normal" font-weight="bold" stroke="none" text-decoration="none" x="864.053466796875" y="1153.5">Dragonet</text></g></g><g transform="translate(-70,-174) scale(1,1)"><g><path fill="none" stroke="none"/><text fill="#000000" font-family="Arial" font-size="13px" font-style="normal" font-weight="normal" stroke="none" text-decoration="none" x="860.803466796875" y="1168.5">(from mob)</text></g></g><g transform="translate(-70,-174) scale(1,1)"><g><path fill="none" stroke="none"/><text fill="#000000" font-family="Arial" font-size="13px" font-style="normal" font-weight="normal" stroke="none" text-decoration="none" x="765" y="1191.5">-END_BONUS: int = 1 {readOnly}</text><path d="M 765 1193.5 L 958.27978515625 1193.5" fill="none" stroke="#000000" stroke-miterlimit="10"/></g></g><g transform="translate(-70,-174) scale(1,1)"><g><path fill="none" stroke="none"/><text fill="#000000" font-family="Arial" font-size="13px" font-style="normal" font-weight="normal" stroke="none" text-decoration="none" x="765" y="1214.5">«constructor»+Dragonet(posX: int, posY: int)</text></g></g><g transform="translate(-70,-174) scale(1,1)"><g><path fill="none" stroke="none"/><text fill="#000000" font-family="Arial" font-size="13px" font-style="normal" font-weight="normal" stroke="none" text-decoration="none" x="765" y="1229.5">+getName(): String</text></g></g><g transform="translate(-70,-174) scale(1,1)"><g><path fill="none" stroke="none"/><text fill="#000000" font-family="Arial" font-size="13px" font-style="normal" font-weight="normal" stroke="none" text-decoration="none" x="765" y="1244.5">+toString(): String</text></g></g><g transform="translate(-70,-174) scale(1,1)"><path d="M 893 1135 L 896 816" fill="none" stroke="#000000" stroke-miterlimit="10"/></g><g transform="translate(-70,-174) scale(1,1)"><path d="M 904.2275241990751 836.4036233437504 L 896 816 L 887.3901977264004 836.2452785806844" fill="#FFFFFF" stroke="none"/></g><g transform="translate(-70,-174) scale(1,1)"><path d="M 904.2275241990751 836.4036233437504 L 896 816 L 887.3901977264004 836.2452785806844 L 904.2275241990751 836.4036233437504" fill="none" stroke="#000000" stroke-miterlimit="10"/></g></g></svg>