<?xml version="1.0" encoding="UTF-8" standalone="no"?><svg xmlns="http://www.w3.org/2000/svg" xmlns:xlink="http://www.w3.org/1999/xlink" height="909" version="1.1" width="1199.7333984375"><defs/><g><g transform="translate(-6,-6) scale(1,1)"><rect fill="#C0C0C0" height="310" opacity="0.2" stroke="none" width="239.8642578125" x="23" y="263"/></g><g transform="translate(-6,-6) scale(1,1)"><rect fill="#ffffff" height="310" stroke="none" width="239.8642578125" x="16" y="256"/></g><g transform="translate(-6,-6) scale(1,1)"><path d="M 16 256 L 255.8642578125 256 L 255.8642578125 566 L 16 566 L 16 256 Z Z" fill="none" stroke="#000000" stroke-miterlimit="10"/></g><g transform="translate(-6,-6) scale(1,1)"><path d="M 16 296 L 255.8642578125 296" fill="none" stroke="#000000" stroke-miterlimit="10"/></g><g transform="translate(-6,-6) scale(1,1)"><path d="M 16 349 L 255.8642578125 349" fill="none" stroke="#000000" stroke-miterlimit="10"/></g><g transform="translate(-6,-6) scale(1,1)"><g><path fill="none" stroke="none"/><text fill="#000000" font-family="Arial" font-size="13px" font-style="italic" font-weight="bold" stroke="none" text-decoration="none" x="121.123046875" y="273.5">Hero</text></g></g><g transform="translate(-6,-6) scale(1,1)"><g><path fill="none" stroke="none"/><text fill="#000000" font-family="Arial" font-size="13px" font-style="normal" font-weight="normal" stroke="none" text-decoration="none" x="104.152587890625" y="288.5">(from mob)</text></g></g><g transform="translate(-6,-6) scale(1,1)"><g><path fill="none" stroke="none"/><text fill="#000000" font-family="Arial" font-size="13px" font-style="normal" font-weight="normal" stroke="none" text-decoration="none" x="21" y="311.5">-mp: int</text></g></g><g transform="translate(-6,-6) scale(1,1)"><g><path fill="none" stroke="none"/><text fill="#000000" font-family="Arial" font-size="13px" font-style="normal" font-weight="normal" stroke="none" text-decoration="none" x="21" y="326.5">-maxMagic: int</text></g></g><g transform="translate(-6,-6) scale(1,1)"><g><path fill="none" stroke="none"/><text fill="#000000" font-family="Arial" font-size="13px" font-style="normal" font-weight="normal" stroke="none" text-decoration="none" x="21" y="341.5">-items: Item[*] {collection="ArrayList"}</text></g></g><g transform="translate(-6,-6) scale(1,1)"><g><path fill="none" stroke="none"/><text fill="#000000" font-family="Arial" font-size="13px" font-style="normal" font-weight="normal" stroke="none" text-decoration="none" x="21" y="364.5">«constructor»+Hero(posX: int, posY: int)</text></g></g><g transform="translate(-6,-6) scale(1,1)"><g><path fill="none" stroke="none"/><text fill="#000000" font-family="Arial" font-size="13px" font-style="normal" font-weight="normal" stroke="none" text-decoration="none" x="21" y="379.5">+restoreHealth(): void</text></g></g><g transform="translate(-6,-6) scale(1,1)"><g><path fill="none" stroke="none"/><text fill="#000000" font-family="Arial" font-size="13px" font-style="normal" font-weight="normal" stroke="none" text-decoration="none" x="21" y="394.5">+addItem(item: Item): void</text></g></g><g transform="translate(-6,-6) scale(1,1)"><g><path fill="none" stroke="none"/><text fill="#000000" font-family="Arial" font-size="13px" font-style="normal" font-weight="normal" stroke="none" text-decoration="none" x="21" y="409.5">+UseItem(): void</text></g></g><g transform="translate(-6,-6) scale(1,1)"><g><path fill="none" stroke="none"/><text fill="#000000" font-family="Arial" font-size="13px" font-style="normal" font-weight="normal" stroke="none" text-decoration="none" x="21" y="424.5">+throwSpell(enemy: Character): void</text></g></g><g transform="translate(-6,-6) scale(1,1)"><g><path fill="none" stroke="none"/><text fill="#000000" font-family="Arial" font-size="13px" font-style="normal" font-weight="normal" stroke="none" text-decoration="none" x="21" y="439.5">+hit(enemy: Character): void</text></g></g><g transform="translate(-6,-6) scale(1,1)"><g><path fill="none" stroke="none"/><text fill="#000000" font-family="Arial" font-size="13px" font-style="normal" font-weight="normal" stroke="none" text-decoration="none" x="21" y="454.5">+addHp(hp: int): void</text></g></g><g transform="translate(-6,-6) scale(1,1)"><g><path fill="none" stroke="none"/><text fill="#000000" font-family="Arial" font-size="13px" font-style="normal" font-weight="normal" stroke="none" text-decoration="none" x="21" y="469.5">+addMp(mp: int): void</text></g></g><g transform="translate(-6,-6) scale(1,1)"><g><path fill="none" stroke="none"/><text fill="#000000" font-family="Arial" font-size="13px" font-style="normal" font-weight="normal" stroke="none" text-decoration="none" x="21" y="484.5">-addGold(gold: int): void</text></g></g><g transform="translate(-6,-6) scale(1,1)"><g><path fill="none" stroke="none"/><text fill="#000000" font-family="Arial" font-size="13px" font-style="normal" font-weight="normal" stroke="none" text-decoration="none" x="21" y="499.5">-addLeather(leather: int): void</text></g></g><g transform="translate(-6,-6) scale(1,1)"><g><path fill="none" stroke="none"/><text fill="#000000" font-family="Arial" font-size="13px" font-style="normal" font-weight="normal" stroke="none" text-decoration="none" x="21" y="514.5">+getMp(): int</text></g></g><g transform="translate(-6,-6) scale(1,1)"><g><path fill="none" stroke="none"/><text fill="#000000" font-family="Arial" font-size="13px" font-style="normal" font-weight="normal" stroke="none" text-decoration="none" x="21" y="529.5">+getMaxMagic(): int</text></g></g><g transform="translate(-6,-6) scale(1,1)"><g><path fill="none" stroke="none"/><text fill="#000000" font-family="Arial" font-size="13px" font-style="normal" font-weight="normal" stroke="none" text-decoration="none" x="21" y="544.5">+canThrowSpell(): boolean</text></g></g><g transform="translate(-6,-6) scale(1,1)"><g><path fill="none" stroke="none"/><text fill="#000000" font-family="Arial" font-size="13px" font-style="normal" font-weight="normal" stroke="none" text-decoration="none" x="21" y="559.5">+toString(): String</text></g></g><g transform="translate(-6,-6) scale(1,1)"><rect fill="#C0C0C0" height="190" opacity="0.2" stroke="none" width="259.3515625" x="439" y="303"/></g><g transform="translate(-6,-6) scale(1,1)"><rect fill="#ffffff" height="190" stroke="none" width="259.3515625" x="432" y="296"/></g><g transform="translate(-6,-6) scale(1,1)"><path d="M 432 296 L 691.3515625 296 L 691.3515625 486 L 432 486 L 432 296 Z Z" fill="none" stroke="#000000" stroke-miterlimit="10"/></g><g transform="translate(-6,-6) scale(1,1)"><path d="M 432 336 L 691.3515625 336" fill="none" stroke="#000000" stroke-miterlimit="10"/></g><g transform="translate(-6,-6) scale(1,1)"><path d="M 432 389 L 691.3515625 389" fill="none" stroke="#000000" stroke-miterlimit="10"/></g><g transform="translate(-6,-6) scale(1,1)"><g><path fill="none" stroke="none"/><text fill="#000000" font-family="Arial" font-size="13px" font-style="italic" font-weight="bold" stroke="none" text-decoration="none" x="548.310791015625" y="313.5">Item</text></g></g><g transform="translate(-6,-6) scale(1,1)"><g><path fill="none" stroke="none"/><text fill="#000000" font-family="Arial" font-size="13px" font-style="normal" font-weight="normal" stroke="none" text-decoration="none" x="528.44580078125" y="328.5">(from shop)</text></g></g><g transform="translate(-6,-6) scale(1,1)"><g><path fill="none" stroke="none"/><text fill="#000000" font-family="Arial" font-size="13px" font-style="normal" font-weight="normal" stroke="none" text-decoration="none" x="437" y="351.5">#price: int</text></g></g><g transform="translate(-6,-6) scale(1,1)"><g><path fill="none" stroke="none"/><text fill="#000000" font-family="Arial" font-size="13px" font-style="normal" font-weight="normal" stroke="none" text-decoration="none" x="437" y="366.5">#name: String</text></g></g><g transform="translate(-6,-6) scale(1,1)"><g><path fill="none" stroke="none"/><text fill="#000000" font-family="Arial" font-size="13px" font-style="normal" font-weight="normal" stroke="none" text-decoration="none" x="437" y="381.5">#receiver: Hero</text></g></g><g transform="translate(-6,-6) scale(1,1)"><g><path fill="none" stroke="none"/><text fill="#000000" font-family="Arial" font-size="13px" font-style="normal" font-weight="normal" stroke="none" text-decoration="none" x="437" y="404.5">«constructor»+Item(name: String, price: int)</text></g></g><g transform="translate(-6,-6) scale(1,1)"><g><path fill="none" stroke="none"/><text fill="#000000" font-family="Arial" font-size="13px" font-style="normal" font-weight="normal" stroke="none" text-decoration="none" x="437" y="419.5">+setReceiver(receiver: Hero): void</text></g></g><g transform="translate(-6,-6) scale(1,1)"><g><path fill="none" stroke="none"/><text fill="#000000" font-family="Arial" font-size="13px" font-style="normal" font-weight="normal" stroke="none" text-decoration="none" x="437" y="434.5">+getPrice(): int</text></g></g><g transform="translate(-6,-6) scale(1,1)"><g><path fill="none" stroke="none"/><text fill="#000000" font-family="Arial" font-size="13px" font-style="italic" font-weight="normal" stroke="none" text-decoration="none" x="437" y="449.5">+applyEffect(): void</text></g></g><g transform="translate(-6,-6) scale(1,1)"><g><path fill="none" stroke="none"/><text fill="#000000" font-family="Arial" font-size="13px" font-style="italic" font-weight="normal" stroke="none" text-decoration="none" x="437" y="464.5">+clone(): Item</text></g></g><g transform="translate(-6,-6) scale(1,1)"><g><path fill="none" stroke="none"/><text fill="#000000" font-family="Arial" font-size="13px" font-style="italic" font-weight="normal" stroke="none" text-decoration="none" x="437" y="479.5">+toString(): String</text></g></g><g transform="translate(-6,-6) scale(1,1)"><rect fill="#C0C0C0" height="130" opacity="0.2" stroke="none" width="373.533203125" x="183" y="679"/></g><g transform="translate(-6,-6) scale(1,1)"><rect fill="#ffffff" height="130" stroke="none" width="373.533203125" x="176" y="672"/></g><g transform="translate(-6,-6) scale(1,1)"><path d="M 176 672 L 549.533203125 672 L 549.533203125 802 L 176 802 L 176 672 Z Z" fill="none" stroke="#000000" stroke-miterlimit="10"/></g><g transform="translate(-6,-6) scale(1,1)"><path d="M 176 712 L 549.533203125 712" fill="none" stroke="#000000" stroke-miterlimit="10"/></g><g transform="translate(-6,-6) scale(1,1)"><path d="M 176 735 L 549.533203125 735" fill="none" stroke="#000000" stroke-miterlimit="10"/></g><g transform="translate(-6,-6) scale(1,1)"><g><path fill="none" stroke="none"/><text fill="#000000" font-family="Arial" font-size="13px" font-style="normal" font-weight="bold" stroke="none" text-decoration="none" x="325.9248046875" y="689.5">HealingItem</text></g></g><g transform="translate(-6,-6) scale(1,1)"><g><path fill="none" stroke="none"/><text fill="#000000" font-family="Arial" font-size="13px" font-style="normal" font-weight="normal" stroke="none" text-decoration="none" x="329.53662109375" y="704.5">(from shop)</text></g></g><g transform="translate(-6,-6) scale(1,1)"><g><path fill="none" stroke="none"/><text fill="#000000" font-family="Arial" font-size="13px" font-style="normal" font-weight="normal" stroke="none" text-decoration="none" x="181" y="727.5">-hpGain: int</text></g></g><g transform="translate(-6,-6) scale(1,1)"><g><path fill="none" stroke="none"/><text fill="#000000" font-family="Arial" font-size="13px" font-style="normal" font-weight="normal" stroke="none" text-decoration="none" x="181" y="750.5">«constructor»+HealingItem(name: String, price: int, hpGain: int)</text></g></g><g transform="translate(-6,-6) scale(1,1)"><g><path fill="none" stroke="none"/><text fill="#000000" font-family="Arial" font-size="13px" font-style="normal" font-weight="normal" stroke="none" text-decoration="none" x="181" y="765.5">+applyEffect(): void</text></g></g><g transform="translate(-6,-6) scale(1,1)"><g><path fill="none" stroke="none"/><text fill="#000000" font-family="Arial" font-size="13px" font-style="normal" font-weight="normal" stroke="none" text-decoration="none" x="181" y="780.5">+clone(): Item</text></g></g><g transform="translate(-6,-6) scale(1,1)"><g><path fill="none" stroke="none"/><text fill="#000000" font-family="Arial" font-size="13px" font-style="normal" font-weight="normal" stroke="none" text-decoration="none" x="181" y="795.5">+toString(): String</text></g></g><g transform="translate(-6,-6) scale(1,1)"><path d="M 361 671 L 360 592 L 560 592 L 561 487" fill="none" stroke="#000000" stroke-miterlimit="10"/></g><g transform="translate(-6,-6) scale(1,1)"><path d="M 569.225087741445 507.4046056478808 L 561 487 L 552.3877802967762 507.244250338884" fill="#FFFFFF" stroke="none"/></g><g transform="translate(-6,-6) scale(1,1)"><path d="M 569.225087741445 507.4046056478808 L 561 487 L 552.3877802967762 507.244250338884 L 569.225087741445 507.4046056478808" fill="none" stroke="#000000" stroke-miterlimit="10"/></g><g transform="translate(-6,-6) scale(1,1)"><rect fill="#C0C0C0" height="130" opacity="0.2" stroke="none" width="413.244140625" x="599" y="679"/></g><g transform="translate(-6,-6) scale(1,1)"><rect fill="#ffffff" height="130" stroke="none" width="413.244140625" x="592" y="672"/></g><g transform="translate(-6,-6) scale(1,1)"><path d="M 592 672 L 1005.244140625 672 L 1005.244140625 802 L 592 802 L 592 672 Z Z" fill="none" stroke="#000000" stroke-miterlimit="10"/></g><g transform="translate(-6,-6) scale(1,1)"><path d="M 592 712 L 1005.244140625 712" fill="none" stroke="#000000" stroke-miterlimit="10"/></g><g transform="translate(-6,-6) scale(1,1)"><path d="M 592 735 L 1005.244140625 735" fill="none" stroke="#000000" stroke-miterlimit="10"/></g><g transform="translate(-6,-6) scale(1,1)"><g><path fill="none" stroke="none"/><text fill="#000000" font-family="Arial" font-size="13px" font-style="normal" font-weight="bold" stroke="none" text-decoration="none" x="742.632568359375" y="689.5">MagicRestoreItem</text></g></g><g transform="translate(-6,-6) scale(1,1)"><g><path fill="none" stroke="none"/><text fill="#000000" font-family="Arial" font-size="13px" font-style="normal" font-weight="normal" stroke="none" text-decoration="none" x="765.39208984375" y="704.5">(from shop)</text></g></g><g transform="translate(-6,-6) scale(1,1)"><g><path fill="none" stroke="none"/><text fill="#000000" font-family="Arial" font-size="13px" font-style="normal" font-weight="normal" stroke="none" text-decoration="none" x="597" y="727.5">-mpGain: int</text></g></g><g transform="translate(-6,-6) scale(1,1)"><g><path fill="none" stroke="none"/><text fill="#000000" font-family="Arial" font-size="13px" font-style="normal" font-weight="normal" stroke="none" text-decoration="none" x="597" y="750.5">«constructor»+MagicRestoreItem(name: String, price: int, mpGain: int)</text></g></g><g transform="translate(-6,-6) scale(1,1)"><g><path fill="none" stroke="none"/><text fill="#000000" font-family="Arial" font-size="13px" font-style="normal" font-weight="normal" stroke="none" text-decoration="none" x="597" y="765.5">+applyEffect(): void</text></g></g><g transform="translate(-6,-6) scale(1,1)"><g><path fill="none" stroke="none"/><text fill="#000000" font-family="Arial" font-size="13px" font-style="normal" font-weight="normal" stroke="none" text-decoration="none" x="597" y="780.5">+clone(): Item</text></g></g><g transform="translate(-6,-6) scale(1,1)"><g><path fill="none" stroke="none"/><text fill="#000000" font-family="Arial" font-size="13px" font-style="normal" font-weight="normal" stroke="none" text-decoration="none" x="597" y="795.5">+toString(): String</text></g></g><g transform="translate(-6,-6) scale(1,1)"><path d="M 799 671 L 800 592 L 560 592 L 561 487" fill="none" stroke="#000000" stroke-miterlimit="10"/></g><g transform="translate(-6,-6) scale(1,1)"><path d="M 569.225087741445 507.4046056478808 L 561 487 L 552.3877802967762 507.244250338884" fill="#FFFFFF" stroke="none"/></g><g transform="translate(-6,-6) scale(1,1)"><path d="M 569.225087741445 507.4046056478808 L 561 487 L 552.3877802967762 507.244250338884 L 569.225087741445 507.4046056478808" fill="none" stroke="#000000" stroke-miterlimit="10"/></g><g transform="translate(-6,-6) scale(1,1)"><rect fill="#C0C0C0" height="130" opacity="0.2" stroke="none" width="200.12158203125" x="479" y="23"/></g><g transform="translate(-6,-6) scale(1,1)"><rect fill="#ffffff" height="130" stroke="none" width="200.12158203125" x="472" y="16"/></g><g transform="translate(-6,-6) scale(1,1)"><path d="M 472 16 L 672.12158203125 16 L 672.12158203125 146 L 472 146 L 472 16 Z Z" fill="none" stroke="#000000" stroke-miterlimit="10"/></g><g transform="translate(-6,-6) scale(1,1)"><path d="M 472 56 L 672.12158203125 56" fill="none" stroke="#000000" stroke-miterlimit="10"/></g><g transform="translate(-6,-6) scale(1,1)"><path d="M 472 79 L 672.12158203125 79" fill="none" stroke="#000000" stroke-miterlimit="10"/></g><g transform="translate(-6,-6) scale(1,1)"><g><path fill="none" stroke="none"/><text fill="#000000" font-family="Arial" font-size="13px" font-style="normal" font-weight="bold" stroke="none" text-decoration="none" x="555.81396484375" y="33.5">Shop</text></g></g><g transform="translate(-6,-6) scale(1,1)"><g><path fill="none" stroke="none"/><text fill="#000000" font-family="Arial" font-size="13px" font-style="normal" font-weight="normal" stroke="none" text-decoration="none" x="538.830810546875" y="48.5">(from shop)</text></g></g><g transform="translate(-6,-6) scale(1,1)"><g><path fill="none" stroke="none"/><text fill="#000000" font-family="Arial" font-size="13px" font-style="normal" font-weight="normal" stroke="none" text-decoration="none" x="477" y="71.5">-client: Hero</text></g></g><g transform="translate(-6,-6) scale(1,1)"><g><path fill="none" stroke="none"/><text fill="#000000" font-family="Arial" font-size="13px" font-style="normal" font-weight="normal" stroke="none" text-decoration="none" x="477" y="94.5">«constructor»+Shop(client: Hero)</text></g></g><g transform="translate(-6,-6) scale(1,1)"><g><path fill="none" stroke="none"/><text fill="#000000" font-family="Arial" font-size="13px" font-style="normal" font-weight="normal" stroke="none" text-decoration="none" x="477" y="109.5">+buyItem(i: int): Item</text></g></g><g transform="translate(-6,-6) scale(1,1)"><g><path fill="none" stroke="none"/><text fill="#000000" font-family="Arial" font-size="13px" font-style="normal" font-weight="normal" stroke="none" text-decoration="none" x="477" y="124.5">+listItems(): void</text></g></g><g transform="translate(-6,-6) scale(1,1)"><g><path fill="none" stroke="none"/><text fill="#000000" font-family="Arial" font-size="13px" font-style="normal" font-weight="normal" stroke="none" text-decoration="none" x="477" y="139.5">+shopInterface(): void</text></g></g><g transform="translate(-6,-6) scale(1,1)"><rect fill="#C0C0C0" height="325" opacity="0.2" stroke="none" width="203.7333984375" x="999" y="175"/></g><g transform="translate(-6,-6) scale(1,1)"><rect fill="#ffffff" height="325" stroke="none" width="203.7333984375" x="992" y="168"/></g><g transform="translate(-6,-6) scale(1,1)"><path d="M 992 168 L 1195.7333984375 168 L 1195.7333984375 493 L 992 493 L 992 168 Z Z" fill="none" stroke="#000000" stroke-miterlimit="10"/></g><g transform="translate(-6,-6) scale(1,1)"><path d="M 992 208 L 1195.7333984375 208" fill="none" stroke="#000000" stroke-miterlimit="10"/></g><g transform="translate(-6,-6) scale(1,1)"><path d="M 992 336 L 1195.7333984375 336" fill="none" stroke="#000000" stroke-miterlimit="10"/></g><g transform="translate(-6,-6) scale(1,1)"><g><path fill="none" stroke="none"/><text fill="#000000" font-family="Arial" font-size="13px" font-style="normal" font-weight="bold" stroke="none" text-decoration="none" x="1054.84765625" y="185.5">GameMaster</text></g></g><g transform="translate(-6,-6) scale(1,1)"><g><path fill="none" stroke="none"/><text fill="#000000" font-family="Arial" font-size="13px" font-style="normal" font-weight="normal" stroke="none" text-decoration="none" x="1067.86669921875" y="200.5">(from ex)</text></g></g><g transform="translate(-6,-6) scale(1,1)"><g><path fill="none" stroke="none"/><text fill="#000000" font-family="Arial" font-size="13px" font-style="normal" font-weight="normal" stroke="none" text-decoration="none" x="997" y="223.5">-hero: Hero</text></g></g><g transform="translate(-6,-6) scale(1,1)"><g><path fill="none" stroke="none"/><text fill="#000000" font-family="Arial" font-size="13px" font-style="normal" font-weight="normal" stroke="none" text-decoration="none" x="997" y="238.5">-enemy: Monster</text></g></g><g transform="translate(-6,-6) scale(1,1)"><g><path fill="none" stroke="none"/><text fill="#000000" font-family="Arial" font-size="13px" font-style="normal" font-weight="normal" stroke="none" text-decoration="none" x="997" y="253.5">-enemyCount: int = 0</text></g></g><g transform="translate(-6,-6) scale(1,1)"><g><path fill="none" stroke="none"/><text fill="#000000" font-family="Arial" font-size="13px" font-style="normal" font-weight="normal" stroke="none" text-decoration="none" x="997" y="268.5">-r: Random</text></g></g><g transform="translate(-6,-6) scale(1,1)"><g><path fill="none" stroke="none"/><text fill="#000000" font-family="Arial" font-size="13px" font-style="normal" font-weight="normal" stroke="none" text-decoration="none" x="997" y="283.5">-map: Map</text></g></g><g transform="translate(-6,-6) scale(1,1)"><g><path fill="none" stroke="none"/><text fill="#000000" font-family="Arial" font-size="13px" font-style="normal" font-weight="normal" stroke="none" text-decoration="none" x="997" y="298.5">-command: Command</text></g></g><g transform="translate(-6,-6) scale(1,1)"><g><path fill="none" stroke="none"/><text fill="#000000" font-family="Arial" font-size="13px" font-style="normal" font-weight="normal" stroke="none" text-decoration="none" x="997" y="313.5">~myScanner: Scanner</text></g></g><g transform="translate(-6,-6) scale(1,1)"><g><path fill="none" stroke="none"/><text fill="#000000" font-family="Arial" font-size="13px" font-style="normal" font-weight="normal" stroke="none" text-decoration="none" x="997" y="328.5">-shop: Shop</text></g></g><g transform="translate(-6,-6) scale(1,1)"><g><path fill="none" stroke="none"/><text fill="#000000" font-family="Arial" font-size="13px" font-style="normal" font-weight="normal" stroke="none" text-decoration="none" x="997" y="351.5">«constructor»+GameMaster()</text></g></g><g transform="translate(-6,-6) scale(1,1)"><g><path fill="none" stroke="none"/><text fill="#000000" font-family="Arial" font-size="13px" font-style="normal" font-weight="normal" stroke="none" text-decoration="none" x="997" y="366.5">-generateHero(): void</text></g></g><g transform="translate(-6,-6) scale(1,1)"><g><path fill="none" stroke="none"/><text fill="#000000" font-family="Arial" font-size="13px" font-style="normal" font-weight="normal" stroke="none" text-decoration="none" x="997" y="381.5">-gameLoop(): void</text></g></g><g transform="translate(-6,-6) scale(1,1)"><g><path fill="none" stroke="none"/><text fill="#000000" font-family="Arial" font-size="13px" font-style="normal" font-weight="normal" stroke="none" text-decoration="none" x="997" y="396.5">-mapExploration(): void</text></g></g><g transform="translate(-6,-6) scale(1,1)"><g><path fill="none" stroke="none"/><text fill="#000000" font-family="Arial" font-size="13px" font-style="normal" font-weight="normal" stroke="none" text-decoration="none" x="997" y="411.5">-fight(): void</text></g></g><g transform="translate(-6,-6) scale(1,1)"><g><path fill="none" stroke="none"/><text fill="#000000" font-family="Arial" font-size="13px" font-style="normal" font-weight="normal" stroke="none" text-decoration="none" x="997" y="426.5">-fightEnd(): void</text></g></g><g transform="translate(-6,-6) scale(1,1)"><g><path fill="none" stroke="none"/><text fill="#000000" font-family="Arial" font-size="13px" font-style="normal" font-weight="normal" stroke="none" text-decoration="none" x="997" y="441.5">-fightTurn(): void</text></g></g><g transform="translate(-6,-6) scale(1,1)"><g><path fill="none" stroke="none"/><text fill="#000000" font-family="Arial" font-size="13px" font-style="normal" font-weight="normal" stroke="none" text-decoration="none" x="997" y="456.5">+initGame(): void</text></g></g><g transform="translate(-6,-6) scale(1,1)"><g><path fill="none" stroke="none"/><text fill="#000000" font-family="Arial" font-size="13px" font-style="normal" font-weight="normal" stroke="none" text-decoration="none" x="997" y="471.5">-endGame(): void</text></g></g><g transform="translate(-6,-6) scale(1,1)"><path d="M 432 405 L 256 405" fill="none" stroke="#000000" stroke-miterlimit="10"/></g><g transform="translate(-6,-6) scale(1,1)"><path d="M 266.16267485762415 400.790482243984 L 256 405 L 266.16267485762415 409.209517756016 L 278 405" fill="#FFFFFF" stroke="none"/></g><g transform="translate(-6,-6) scale(1,1)"><path d="M 266.16267485762415 400.790482243984 L 256 405 L 266.16267485762415 409.209517756016 L 278 405 L 266.16267485762415 400.790482243984" fill="none" stroke="#000000" stroke-miterlimit="10"/></g><g transform="translate(-6,-6) scale(1,1)"><g><path fill="none" stroke="none"/><text fill="#000000" font-family="Arial" font-size="13px" font-style="normal" font-weight="normal" stroke="none" text-decoration="none" x="391.5" y="423.5">+0..n</text></g></g><g transform="translate(-6,-6) scale(1,1)"><path d="M 471 81 L 144 80 L 139 255" fill="none" stroke="#000000" stroke-miterlimit="10"/></g><g transform="translate(-6,-6) scale(1,1)"><path d="M 135.08244305941218 244.7212477597107 L 139 255 L 143.4980443328709 244.96169351038094" fill="none" stroke="#000000" stroke-miterlimit="10"/></g><g transform="translate(-6,-6) scale(1,1)"><g><path fill="none" stroke="none"/><text fill="#000000" font-family="Arial" font-size="13px" font-style="normal" font-weight="normal" stroke="none" text-decoration="none" x="436.5" y="99.5">+1</text></g></g><g transform="translate(-6,-6) scale(1,1)"><g><path fill="none" stroke="none"/><text fill="#000000" font-family="Arial" font-size="13px" font-style="normal" font-weight="normal" stroke="none" text-decoration="none" x="146.726806640625" y="233.5">+1</text></g></g><g transform="translate(-6,-6) scale(1,1)"><path d="M 432 369 L 376 369 L 376 168 L 232 168 L 232 256" fill="none" stroke="#000000" stroke-miterlimit="10"/></g><g transform="translate(-6,-6) scale(1,1)"><path d="M 227.790482243984 245.83732514237585 L 232 256 L 236.209517756016 245.83732514237585" fill="none" stroke="#000000" stroke-miterlimit="10"/></g><g transform="translate(-6,-6) scale(1,1)"><g><path fill="none" stroke="none"/><text fill="#000000" font-family="Arial" font-size="13px" font-style="normal" font-weight="normal" stroke="none" text-decoration="none" x="239.5" y="234.5">+1</text></g></g><g transform="translate(-6,-6) scale(1,1)"><path d="M 1090 167 L 1088 80 L 673 81" fill="none" stroke="#000000" stroke-miterlimit="10"/></g><g transform="translate(-6,-6) scale(1,1)"><path d="M 683.152501966857 76.76600616285718 L 673 81 L 683.1727887405201 85.18501723302866" fill="none" stroke="#000000" stroke-miterlimit="10"/></g><g transform="translate(-6,-6) scale(1,1)"><g><path fill="none" stroke="none"/><text fill="#000000" font-family="Arial" font-size="13px" font-style="normal" font-weight="normal" stroke="none" text-decoration="none" x="927.5" y="73.5">+invoke</text></g></g><g transform="translate(-6,-6) scale(1,1)"><g><path fill="none" stroke="none"/><text fill="#000000" font-family="Arial" font-size="13px" font-style="normal" font-weight="normal" stroke="none" text-decoration="none" x="1066.5" y="145.5">+1</text></g></g><g transform="translate(-6,-6) scale(1,1)"><g><path fill="none" stroke="none"/><text fill="#000000" font-family="Arial" font-size="13px" font-style="normal" font-weight="normal" stroke="none" text-decoration="none" x="691.5" y="99.5">+1</text></g></g><g transform="translate(-6,-6) scale(1,1)"><path d="M 120 566 L 120 904 L 1104 904 L 1104 493" fill="none" stroke="#000000" stroke-miterlimit="10"/></g><g transform="translate(-6,-6) scale(1,1)"><g><path fill="none" stroke="none"/><text fill="#000000" font-family="Arial" font-size="13px" font-style="normal" font-weight="normal" stroke="none" text-decoration="none" x="127.5" y="595.5">+1</text></g></g><g transform="translate(-6,-6) scale(1,1)"><g><path fill="none" stroke="none"/><text fill="#000000" font-family="Arial" font-size="13px" font-style="normal" font-weight="normal" stroke="none" text-decoration="none" x="1081.5" y="522.5">+1</text></g></g></g></svg>